# Murti generated mesh: 802 verts, 1600 faces
o a_cone_next_to_a_cylinder
v -0.157141 -0.338710 -0.048387
v -0.145161 -0.338710 -0.063404
v -0.145161 -0.360152 -0.048387
v -0.145161 -0.366483 -0.016129
v -0.160215 -0.338710 -0.016129
v -0.145161 -0.341472 0.016129
v -0.146622 -0.338710 0.016129
v -0.145161 -0.338710 0.017911
v -0.158631 -0.306452 -0.048387
v -0.145161 -0.306452 -0.068671
v -0.158857 -0.306452 -0.016129
v -0.145479 -0.306452 0.016129
v -0.145161 -0.306452 0.016508
v -0.154767 -0.274194 -0.048387
v -0.145161 -0.274194 -0.064982
v -0.152656 -0.274194 -0.016129
v -0.145161 -0.274194 -0.003374
v -0.145161 -0.305725 0.016129
v -0.152805 -0.241935 -0.048387
v -0.145161 -0.241935 -0.066705
v -0.145161 -0.241935 -0.020876
v -0.145161 -0.246732 -0.016129
v -0.151523 -0.209677 -0.080645
v -0.145161 -0.209677 -0.088224
v -0.145161 -0.225718 -0.080645
v -0.155660 -0.209677 -0.048387
v -0.145161 -0.209677 -0.019536
v -0.158436 -0.177419 -0.080645
v -0.145161 -0.177419 -0.104056
v -0.157083 -0.177419 -0.048387
v -0.145161 -0.177419 -0.024188
v -0.159608 -0.145161 -0.080645
v -0.145161 -0.145161 -0.110959
v -0.155661 -0.145161 -0.048387
v -0.145161 -0.145161 -0.030504
v -0.156456 -0.112903 -0.080645
v -0.145161 -0.112903 -0.112317
v -0.150668 -0.112903 -0.048387
v -0.145161 -0.112903 -0.040050
v -0.152224 -0.080645 -0.080645
v -0.145161 -0.080645 -0.098453
v -0.145161 -0.080645 -0.053562
v -0.145161 -0.086693 -0.048387
v -0.146351 -0.048387 -0.080645
v -0.145161 -0.048387 -0.083879
v -0.145161 -0.048387 -0.076154
v -0.145161 -0.044495 -0.080645
v -0.133295 -0.370968 -0.048387
v -0.112903 -0.370968 -0.062474
v -0.112903 -0.379125 -0.048387
v -0.112903 -0.382512 -0.016129
v -0.140537 -0.370968 -0.016129
v -0.112903 -0.376450 0.016129
v -0.122857 -0.370968 0.016129
v -0.112903 -0.370968 0.025416
v -0.123306 -0.338710 -0.080645
v -0.112903 -0.338710 -0.086566
v -0.112903 -0.349301 -0.080645
v -0.112903 -0.343063 0.048387
v -0.116035 -0.338710 0.048387
v -0.112903 -0.338710 0.051380
v -0.132519 -0.306452 -0.080645
v -0.112903 -0.306452 -0.091855
v -0.115912 -0.306452 0.048387
v -0.112903 -0.306452 0.051424
v -0.131575 -0.274194 -0.080645
v -0.112903 -0.274194 -0.092100
v -0.132832 -0.274194 0.016129
v -0.112903 -0.274194 0.038413
v -0.112903 -0.299490 0.048387
v -0.136538 -0.241935 -0.080645
v -0.112903 -0.241935 -0.095842
v -0.143550 -0.241935 -0.016129
v -0.125054 -0.241935 0.016129
v -0.112903 -0.241935 0.029586
v -0.112903 -0.209677 -0.108928
v -0.143572 -0.209677 -0.016129
v -0.123639 -0.209677 0.016129
v -0.112903 -0.209677 0.028173
v -0.135336 -0.177419 -0.112903
v -0.112903 -0.177419 -0.125505
v -0.112903 -0.202463 -0.112903
v -0.140445 -0.177419 -0.016129
v -0.123067 -0.177419 0.016129
v -0.112903 -0.177419 0.027790
v -0.143455 -0.145161 -0.112903
v -0.112903 -0.145161 -0.133732
v -0.136346 -0.145161 -0.016129
v -0.120350 -0.145161 0.016129
v -0.112903 -0.145161 0.025212
v -0.144775 -0.112903 -0.112903
v -0.112903 -0.112903 -0.137781
v -0.131720 -0.112903 -0.016129
v -0.114549 -0.112903 0.016129
v -0.112903 -0.112903 0.018264
v -0.136775 -0.080645 -0.112903
v -0.112903 -0.080645 -0.134763
v -0.143639 -0.080645 -0.048387
v -0.127963 -0.080645 -0.016129
v -0.112903 -0.080645 0.011721
v -0.112903 -0.101498 0.016129
v -0.131490 -0.048387 -0.112903
v -0.112903 -0.048387 -0.128899
v -0.138628 -0.048387 -0.048387
v -0.124246 -0.048387 -0.016129
v -0.112903 -0.048387 0.002410
v -0.115817 -0.016129 -0.112903
v -0.112903 -0.016129 -0.115254
v -0.135484 -0.016129 -0.080645
v -0.130192 -0.016129 -0.048387
v -0.112903 -0.016129 -0.016346
v -0.112903 -0.016406 -0.016129
v -0.112903 -0.012420 -0.112903
v -0.121907 0.016129 -0.080645
v -0.112903 0.016129 -0.090740
v -0.119352 0.016129 -0.048387
v -0.112903 0.016129 -0.038191
v -0.112903 0.027948 -0.080645
v -0.112903 0.027798 -0.048387
v -0.113076 0.306452 -0.048387
v -0.112903 0.306452 -0.048623
v -0.112903 0.306158 -0.048387
v -0.112903 0.306452 -0.047705
v -0.119028 0.338710 -0.048387
v -0.112903 0.338710 -0.058720
v -0.112903 0.338710 -0.030216
v -0.112903 0.353852 -0.048387
v -0.080645 -0.370968 -0.074717
v -0.080645 -0.384154 -0.048387
v -0.080645 -0.387756 -0.016129
v -0.080645 -0.385422 0.016129
v -0.080645 -0.374848 0.048387
v -0.087722 -0.370968 0.048387
v -0.080645 -0.370968 0.054284
v -0.080645 -0.338710 -0.095195
v -0.080645 -0.365044 -0.080645
v -0.080645 -0.338710 0.077751
v -0.080645 -0.306452 -0.098426
v -0.080645 -0.306452 0.076765
v -0.080645 -0.274194 -0.099837
v -0.103128 -0.274194 0.048387
v -0.080645 -0.274194 0.066915
v -0.080645 -0.241935 -0.103847
v -0.094722 -0.241935 0.048387
v -0.080645 -0.241935 0.060532
v -0.103354 -0.209677 -0.112903
v -0.080645 -0.209677 -0.120415
v -0.080645 -0.223934 -0.112903
v -0.095053 -0.209677 0.048387
v -0.080645 -0.209677 0.061793
v -0.080645 -0.177419 -0.132226
v -0.095426 -0.177419 0.048387
v -0.080645 -0.177419 0.063646
v -0.080645 -0.145161 -0.143271
v -0.095758 -0.145161 0.048387
v -0.080645 -0.145161 0.065382
v -0.096856 -0.112903 -0.145161
v -0.080645 -0.112903 -0.150815
v -0.080645 -0.137526 -0.145161
v -0.094911 -0.112903 0.048387
v -0.080645 -0.112903 0.065324
v -0.096915 -0.080645 -0.145161
v -0.080645 -0.080645 -0.152970
v -0.110110 -0.080645 0.016129
v -0.093862 -0.080645 0.048387
v -0.080645 -0.080645 0.064596
v -0.085967 -0.048387 -0.145161
v -0.080645 -0.048387 -0.147924
v -0.104655 -0.048387 0.016129
v -0.089875 -0.048387 0.048387
v -0.080645 -0.048387 0.059479
v -0.080645 -0.041938 -0.145161
v -0.080645 -0.016129 -0.134373
v -0.112780 -0.016129 -0.016129
v -0.096680 -0.016129 0.016129
v -0.080645 -0.016129 0.040442
v -0.080645 -0.028637 0.048387
v -0.088810 0.016129 -0.112903
v -0.080645 0.016129 -0.117926
v -0.102546 0.016129 -0.016129
v -0.085048 0.016129 0.016129
v -0.080645 0.016129 0.021843
v -0.080645 0.023150 -0.112903
v -0.097085 0.048387 -0.080645
v -0.080645 0.048387 -0.093610
v -0.101659 0.048387 -0.048387
v -0.090872 0.048387 -0.016129
v -0.080645 0.048387 -0.001833
v -0.080645 0.024301 0.016129
v -0.080645 0.068040 -0.080645
v -0.090175 0.080645 -0.048387
v -0.080645 0.080645 -0.064067
v -0.080645 0.080645 -0.018872
v -0.080645 0.078798 -0.016129
v -0.080645 0.096771 -0.048387
v -0.080645 0.306452 -0.068594
v -0.080645 0.279636 -0.048387
v -0.080645 0.284512 -0.016129
v -0.099786 0.306452 -0.016129
v -0.080645 0.306452 0.000416
v -0.081690 0.338710 -0.080645
v -0.080645 0.338710 -0.081060
v -0.080645 0.337182 -0.080645
v -0.102171 0.338710 -0.016129
v -0.080645 0.338710 -0.003110
v -0.080645 0.340342 -0.080645
v -0.096760 0.370968 -0.048387
v -0.080645 0.370968 -0.063176
v -0.080645 0.370968 -0.033902
v -0.080645 0.355774 -0.016129
v -0.080645 0.377914 -0.048387
v -0.062509 -0.370968 -0.080645
v -0.048387 -0.370968 -0.084016
v -0.048387 -0.373945 -0.080645
v -0.048387 -0.387587 -0.048387
v -0.048387 -0.393012 -0.016129
v -0.048387 -0.391504 0.016129
v -0.048387 -0.384905 0.048387
v -0.048387 -0.370968 0.078492
v -0.048387 -0.338710 -0.099681
v -0.048387 -0.368592 0.080645
v -0.076815 -0.338710 0.080645
v -0.048387 -0.338710 0.097500
v -0.048387 -0.306452 -0.102337
v -0.075450 -0.306452 0.080645
v -0.048387 -0.306452 0.095627
v -0.048387 -0.274194 -0.103683
v -0.060103 -0.274194 0.080645
v -0.048387 -0.274194 0.088349
v -0.048387 -0.241935 -0.107890
v -0.048387 -0.250648 0.080645
v -0.048387 -0.241935 0.077479
v -0.048387 -0.209677 -0.123770
v -0.048387 -0.232326 -0.112903
v -0.048387 -0.217136 0.080645
v -0.049682 -0.209677 0.080645
v -0.048387 -0.209677 0.081626
v -0.048387 -0.177419 -0.135038
v -0.058310 -0.177419 0.080645
v -0.048387 -0.177419 0.087948
v -0.073596 -0.145161 -0.145161
v -0.048387 -0.145161 -0.150850
v -0.048387 -0.156125 -0.145161
v -0.063287 -0.145161 0.080645
v -0.048387 -0.145161 0.091834
v -0.048387 -0.112903 -0.158575
v -0.063730 -0.112903 0.080645
v -0.048387 -0.112903 0.092478
v -0.048387 -0.080645 -0.162721
v -0.063968 -0.080645 0.080645
v -0.048387 -0.080645 0.093082
v -0.048387 -0.048387 -0.161442
v -0.060307 -0.048387 0.080645
v -0.048387 -0.048387 0.090856
v -0.062810 -0.016129 -0.145161
v -0.048387 -0.016129 -0.152999
v -0.073876 -0.016129 0.048387
v -0.048387 -0.016129 0.076510
v -0.048387 -0.023829 0.080645
v -0.048387 -0.003839 -0.145161
v -0.048387 0.016129 -0.132511
v -0.060743 0.016129 0.048387
v -0.048387 0.016129 0.060890
v -0.048387 0.044954 -0.112903
v -0.048387 0.048387 -0.109953
v -0.067984 0.048387 0.016129
v -0.048387 0.048387 0.042544
v -0.048387 0.040026 0.048387
v -0.067481 0.080645 -0.080645
v -0.048387 0.080645 -0.091191
v -0.079778 0.080645 -0.016129
v -0.061610 0.080645 0.016129
v -0.048387 0.080645 0.033739
v -0.048387 0.098664 -0.080645
v -0.069588 0.112903 -0.048387
v -0.048387 0.112903 -0.068156
v -0.067430 0.112903 -0.016129
v -0.054204 0.112903 0.016129
v -0.048387 0.112903 0.024874
v -0.052155 0.145161 -0.048387
v -0.048387 0.145161 -0.051134
v -0.058315 0.145161 -0.016129
v -0.048387 0.145161 0.012605
v -0.048387 0.140396 0.016129
v -0.048387 0.151961 -0.048387
v -0.048387 0.174709 -0.016129
v -0.072311 0.274194 -0.048387
v -0.048387 0.274194 -0.057814
v -0.048387 0.255332 -0.048387
v -0.048387 0.243762 -0.016129
v -0.068746 0.274194 -0.016129
v -0.048387 0.274194 0.007792
v -0.048387 0.306452 -0.077776
v -0.048387 0.296858 0.016129
v -0.051971 0.306452 0.016129
v -0.048387 0.306452 0.018051
v -0.048387 0.338710 -0.084766
v -0.048387 0.316457 -0.080645
v -0.048387 0.310112 0.016129
v -0.048387 0.338710 0.002400
v -0.048387 0.352605 -0.080645
v -0.048387 0.370968 -0.066818
v -0.048387 0.360118 -0.016129
v -0.048387 0.370968 -0.030714
v -0.048387 0.378757 -0.048387
v -0.019368 -0.403226 0.016129
v -0.016129 -0.403226 -0.013538
v -0.016129 -0.404874 0.016129
v -0.016129 -0.403226 0.020693
v -0.016129 -0.370968 -0.089433
v -0.016129 -0.378646 -0.080645
v -0.016129 -0.391971 -0.048387
v -0.016129 -0.403068 -0.016129
v -0.016129 -0.394414 0.048387
v -0.016129 -0.384129 0.080645
v -0.045929 -0.370968 0.080645
v -0.016129 -0.370968 0.098886
v -0.016129 -0.338710 -0.102841
v -0.016129 -0.338710 0.111378
v -0.016129 -0.306452 -0.105544
v -0.016129 -0.306452 0.105321
v -0.016129 -0.274194 -0.106892
v -0.016129 -0.274194 0.098171
v -0.016129 -0.241935 -0.112795
v -0.043931 -0.241935 0.080645
v -0.016129 -0.241935 0.094230
v -0.016129 -0.209677 -0.125909
v -0.016129 -0.241736 -0.112903
v -0.016129 -0.209677 0.095666
v -0.016129 -0.177419 -0.137157
v -0.016129 -0.177419 0.097836
v -0.016129 -0.145161 -0.154087
v -0.016129 -0.161986 -0.145161
v -0.016129 -0.145161 0.100537
v -0.016129 -0.112903 -0.163285
v -0.016129 -0.112903 0.103077
v -0.016129 -0.080645 -0.170552
v -0.016129 -0.080645 0.104040
v -0.016129 -0.048387 -0.173091
v -0.016129 -0.048387 0.103022
v -0.016129 -0.016129 -0.164525
v -0.043507 -0.016129 0.080645
v -0.016129 -0.016129 0.096250
v -0.024286 0.016129 -0.145161
v -0.016129 0.016129 -0.149583
v -0.022115 0.016129 0.080645
v -0.016129 0.016129 0.085158
v -0.016129 0.021917 -0.145161
v -0.043611 0.048387 -0.112903
v -0.016129 0.048387 -0.126030
v -0.042419 0.048387 0.048387
v -0.016129 0.048387 0.070509
v -0.016129 0.027020 0.080645
v -0.016129 0.069021 -0.112903
v -0.016129 0.080645 -0.105044
v -0.034070 0.080645 0.048387
v -0.016129 0.080645 0.063890
v -0.033493 0.112903 -0.080645
v -0.016129 0.112903 -0.089714
v -0.027514 0.112903 0.048387
v -0.016129 0.112903 0.058719
v -0.016129 0.130230 -0.080645
v -0.016129 0.145161 -0.070321
v -0.046915 0.145161 0.016129
v -0.020582 0.145161 0.048387
v -0.016129 0.145161 0.052548
v -0.032251 0.177419 -0.048387
v -0.016129 0.177419 -0.057489
v -0.047230 0.177419 -0.016129
v -0.036116 0.177419 0.016129
v -0.016129 0.177419 0.041271
v -0.016129 0.159563 0.048387
v -0.025475 0.209677 -0.048387
v -0.016129 0.209677 -0.053038
v -0.040980 0.209677 -0.016129
v -0.029939 0.209677 0.016129
v -0.016129 0.209677 0.030845
v -0.034336 0.241935 -0.048387
v -0.016129 0.241935 -0.056278
v -0.047356 0.241935 -0.016129
v -0.030287 0.241935 0.016129
v -0.016129 0.241935 0.029435
v -0.016129 0.274194 -0.066478
v -0.040474 0.274194 0.016129
v -0.016129 0.274194 0.031132
v -0.035216 0.306452 -0.080645
v -0.016129 0.306452 -0.083287
v -0.016129 0.300385 -0.080645
v -0.016129 0.306452 0.028850
v -0.016129 0.338710 -0.084479
v -0.016129 0.323233 0.016129
v -0.016129 0.338710 0.004749
v -0.016129 0.348538 -0.080645
v -0.016129 0.370968 -0.057609
v -0.016129 0.357434 -0.016129
v -0.016129 0.370968 -0.039409
v -0.016129 0.374658 -0.048387
v -0.015712 -0.403226 -0.016129
v 0.016129 -0.403226 -0.035585
v 0.016129 -0.411893 -0.016129
v 0.016129 -0.413469 0.016129
v 0.016129 -0.405957 0.048387
v 0.009036 -0.403226 0.048387
v 0.016129 -0.403226 0.053557
v 0.016129 -0.370968 -0.091823
v 0.016129 -0.381169 -0.080645
v 0.016129 -0.396255 -0.048387
v 0.016129 -0.389627 0.080645
v 0.016129 -0.370968 0.102665
v 0.016129 -0.338710 -0.103477
v 0.016129 -0.338710 0.112696
v 0.016129 -0.306452 -0.104877
v 0.016129 -0.306452 0.105747
v 0.016129 -0.274194 -0.105632
v 0.016129 -0.274194 0.099326
v 0.016129 -0.241935 -0.109524
v 0.016129 -0.241935 0.095883
v 0.016129 -0.209677 -0.124630
v 0.016129 -0.235422 -0.112903
v 0.016129 -0.209677 0.097024
v 0.016129 -0.177419 -0.136341
v 0.016129 -0.177419 0.099118
v 0.016129 -0.145161 -0.155261
v 0.016129 -0.162831 -0.145161
v 0.016129 -0.145161 0.102997
v 0.016129 -0.112903 -0.164853
v 0.016129 -0.112903 0.105813
v 0.016129 -0.080645 -0.176414
v 0.016129 -0.080645 0.105410
v 0.002972 -0.048387 -0.177419
v 0.016129 -0.048387 -0.180539
v 0.016129 -0.072880 -0.177419
v 0.016129 -0.048387 0.103960
v 0.016129 -0.039289 -0.177419
v 0.016129 -0.016129 -0.170255
v 0.016129 -0.016129 0.097098
v 0.016129 0.016129 -0.155100
v 0.016129 0.016129 0.087252
v 0.016129 0.029613 -0.145161
v 0.016129 0.048387 -0.130028
v 0.016129 0.031215 0.080645
v 0.016129 0.048387 0.071075
v 0.016129 0.076502 -0.112903
v 0.016129 0.080645 -0.109921
v 0.016129 0.080645 0.063029
v 0.016129 0.112903 -0.094030
v 0.016129 0.112903 0.058548
v 0.016129 0.143923 -0.080645
v 0.016129 0.145161 -0.079789
v 0.016129 0.145161 0.055439
v 0.016129 0.177419 -0.066713
v 0.016129 0.177328 0.048387
v 0.016129 0.177419 0.048360
v 0.016129 0.209677 -0.062358
v 0.016129 0.209677 0.041270
v 0.016129 0.241935 -0.064763
v 0.016129 0.241935 0.042810
v 0.016129 0.274194 -0.073603
v 0.016129 0.274194 0.042641
v 0.016129 0.306452 -0.084472
v 0.016129 0.292982 -0.080645
v 0.016129 0.306452 0.036983
v 0.016129 0.338710 -0.082440
v 0.016129 0.327705 0.016129
v 0.016129 0.338710 0.005647
v 0.016129 0.342360 -0.080645
v 0.016129 0.370968 -0.049828
v 0.016129 0.356053 -0.016129
v 0.016129 0.370968 -0.046562
v 0.016129 0.371636 -0.048387
v 0.048387 -0.403226 -0.040524
v 0.048387 -0.414112 -0.016129
v 0.048387 -0.415788 0.016129
v 0.048387 -0.408963 0.048387
v 0.048387 -0.403226 0.057712
v 0.048387 -0.370968 -0.090460
v 0.048387 -0.380178 -0.080645
v 0.048387 -0.398322 -0.048387
v 0.048387 -0.387736 0.080645
v 0.048387 -0.370968 0.096588
v 0.048387 -0.338710 -0.101526
v 0.048387 -0.338710 0.101585
v 0.048387 -0.306452 -0.102180
v 0.048387 -0.306452 0.097681
v 0.048387 -0.274194 -0.102192
v 0.048387 -0.274194 0.093168
v 0.048387 -0.241935 -0.103707
v 0.048387 -0.241935 0.089652
v 0.048387 -0.209677 -0.118478
v 0.048387 -0.220500 -0.112903
v 0.048387 -0.209677 0.090618
v 0.048387 -0.177419 -0.130808
v 0.048387 -0.177419 0.094187
v 0.048387 -0.145161 -0.148429
v 0.048387 -0.150214 -0.145161
v 0.048387 -0.145161 0.095780
v 0.048387 -0.112903 -0.162440
v 0.048387 -0.112903 0.096263
v 0.048387 -0.080645 -0.175890
v 0.048387 -0.080645 0.094255
v 0.048387 -0.048387 -0.181548
v 0.048387 -0.072285 -0.177419
v 0.048387 -0.048387 0.090526
v 0.048387 -0.037625 -0.177419
v 0.048387 -0.016129 -0.169292
v 0.040115 -0.016129 0.080645
v 0.048387 -0.028476 0.080645
v 0.048387 -0.016129 0.072169
v 0.048387 0.016129 -0.151180
v 0.024356 0.016129 0.080645
v 0.048387 0.016129 0.051836
v 0.048387 0.023552 -0.145161
v 0.048387 0.048387 -0.120361
v 0.034575 0.048387 0.048387
v 0.048387 0.020888 0.048387
v 0.048387 0.048387 0.027819
v 0.048387 0.059308 -0.112903
v 0.048387 0.080645 -0.097645
v 0.027443 0.080645 0.048387
v 0.048387 0.080645 0.018913
v 0.048387 0.112903 -0.084076
v 0.045720 0.112903 0.016129
v 0.048387 0.096092 0.016129
v 0.048387 0.112903 0.010692
v 0.024990 0.112903 0.048387
v 0.048387 0.124061 -0.080645
v 0.048387 0.145161 -0.070711
v 0.048387 0.137037 0.016129
v 0.048387 0.145161 0.017435
v 0.023148 0.145161 0.048387
v 0.048387 0.177419 -0.065123
v 0.048387 0.177419 0.020915
v 0.048387 0.209677 -0.064290
v 0.048387 0.209677 0.025192
v 0.048387 0.241935 -0.068866
v 0.048387 0.241935 0.032258
v 0.048387 0.274194 -0.077474
v 0.048387 0.274194 0.037493
v 0.048387 0.306452 -0.084845
v 0.048387 0.284871 -0.080645
v 0.048387 0.306452 0.035784
v 0.048387 0.328357 -0.080645
v 0.030936 0.338710 -0.080645
v 0.048387 0.338710 -0.076986
v 0.048387 0.327741 0.016129
v 0.048387 0.338710 0.005443
v 0.021117 0.370968 -0.048387
v 0.048387 0.365206 -0.048387
v 0.048387 0.354028 -0.016129
v 0.080645 -0.403226 -0.042096
v 0.080645 -0.414632 -0.016129
v 0.080645 -0.414801 0.016129
v 0.076727 -0.403226 0.048387
v 0.080645 -0.403226 0.046620
v 0.080645 -0.370968 -0.089252
v 0.080645 -0.379366 -0.080645
v 0.080645 -0.399086 -0.048387
v 0.080645 -0.402104 0.048387
v 0.078804 -0.370968 0.080645
v 0.080645 -0.370968 0.079345
v 0.080645 -0.338710 -0.098572
v 0.080645 -0.366642 0.080645
v 0.080645 -0.338710 0.087027
v 0.080645 -0.306452 -0.098707
v 0.077934 -0.306452 0.080645
v 0.080645 -0.314236 0.080645
v 0.080645 -0.306452 0.078326
v 0.080645 -0.274194 -0.097335
v 0.066351 -0.274194 0.080645
v 0.080645 -0.274194 0.068965
v 0.080645 -0.241935 -0.097361
v 0.059436 -0.241935 0.080645
v 0.080645 -0.241935 0.063302
v 0.060535 -0.209677 -0.112903
v 0.080645 -0.209677 -0.104277
v 0.061059 -0.209677 0.080645
v 0.080645 -0.209677 0.064250
v 0.080645 -0.177419 -0.118642
v 0.080645 -0.188575 -0.112903
v 0.066418 -0.177419 0.080645
v 0.080645 -0.177419 0.066684
v 0.057012 -0.145161 -0.145161
v 0.080645 -0.145161 -0.135008
v 0.069260 -0.145161 0.080645
v 0.080645 -0.145161 0.068765
v 0.080645 -0.112903 -0.155689
v 0.080645 -0.130519 -0.145161
v 0.066976 -0.112903 0.080645
v 0.080645 -0.112903 0.062715
v 0.080645 -0.080645 -0.170663
v 0.080612 -0.080645 0.048387
v 0.080645 -0.080724 0.048387
v 0.080645 -0.080645 0.048341
v 0.062297 -0.080645 0.080645
v 0.066486 -0.048387 -0.177419
v 0.080645 -0.048387 -0.173711
v 0.067993 -0.048387 0.048387
v 0.080645 -0.048387 0.024219
v 0.057629 -0.048387 0.080645
v 0.080645 -0.016129 -0.159985
v 0.068776 -0.016129 0.016129
v 0.080645 -0.039927 0.016129
v 0.080645 -0.016129 -0.010721
v 0.061649 -0.016129 0.048387
v 0.080645 0.001450 -0.145161
v 0.059802 0.016129 -0.145161
v 0.080645 0.016129 -0.120764
v 0.077642 0.016129 -0.048387
v 0.080645 0.011673 -0.048387
v 0.080645 0.016129 -0.055777
v 0.067763 0.016129 -0.016129
v 0.080645 -0.011149 -0.016129
v 0.062811 0.016129 0.016129
v 0.050528 0.016129 0.048387
v 0.056439 0.048387 -0.112903
v 0.080645 0.021382 -0.112903
v 0.069491 0.048387 -0.080645
v 0.080645 0.031151 -0.080645
v 0.066656 0.048387 -0.048387
v 0.061948 0.048387 -0.016129
v 0.054555 0.048387 0.016129
v 0.061674 0.080645 -0.080645
v 0.063816 0.080645 -0.048387
v 0.058643 0.080645 -0.016129
v 0.050064 0.080645 0.016129
v 0.051877 0.112903 -0.080645
v 0.061158 0.112903 -0.048387
v 0.056819 0.112903 -0.016129
v 0.062887 0.145161 -0.048387
v 0.058963 0.145161 -0.016129
v 0.049103 0.145161 0.016129
v 0.069358 0.177419 -0.048387
v 0.064202 0.177419 -0.016129
v 0.051187 0.177419 0.016129
v 0.080645 0.209677 -0.052660
v 0.080645 0.200343 -0.048387
v 0.080645 0.209677 -0.030768
v 0.076775 0.209677 -0.016129
v 0.055511 0.209677 0.016129
v 0.080645 0.241935 -0.062556
v 0.080645 0.217870 -0.016129
v 0.080645 0.241935 -0.004771
v 0.063059 0.241935 0.016129
v 0.080645 0.274194 -0.070274
v 0.075901 0.274194 0.016129
v 0.080645 0.274194 0.011179
v 0.063660 0.306452 -0.080645
v 0.080645 0.306452 -0.072769
v 0.080645 0.301851 0.016129
v 0.080645 0.306452 0.016735
v 0.080645 0.338710 -0.059316
v 0.080645 0.307293 0.016129
v 0.080645 0.338710 -0.009927
v 0.080645 0.350866 -0.048387
v 0.080645 0.343849 -0.016129
v 0.112903 -0.403226 -0.040501
v 0.112903 -0.412611 -0.016129
v 0.112903 -0.410194 0.016129
v 0.112903 -0.403226 0.027220
v 0.112903 -0.370968 -0.086471
v 0.112903 -0.376892 -0.080645
v 0.112903 -0.398798 -0.048387
v 0.112903 -0.384517 0.048387
v 0.112903 -0.370968 0.058817
v 0.112903 -0.338710 -0.094612
v 0.088020 -0.338710 0.080645
v 0.112903 -0.338710 0.059731
v 0.112903 -0.306452 -0.092846
v 0.112903 -0.306452 0.050455
v 0.112903 -0.274194 -0.087024
v 0.100848 -0.274194 0.048387
v 0.112903 -0.302660 0.048387
v 0.112903 -0.274194 0.033988
v 0.112903 -0.247802 -0.080645
v 0.110932 -0.241935 -0.080645
v 0.112903 -0.241935 -0.078008
v 0.095221 -0.241935 0.048387
v 0.112903 -0.241935 0.022853
v 0.112903 -0.209677 -0.084310
v 0.112903 -0.231734 -0.080645
v 0.095057 -0.209677 0.048387
v 0.112903 -0.209677 0.017684
v 0.087935 -0.177419 -0.112903
v 0.112903 -0.177419 -0.087511
v 0.110846 -0.177419 0.016129
v 0.112903 -0.197710 0.016129
v 0.112903 -0.177419 0.011448
v 0.095288 -0.177419 0.048387
v 0.103674 -0.145161 -0.112903
v 0.112903 -0.145161 -0.098611
v 0.104833 -0.145161 0.016129
v 0.112903 -0.145161 -0.005203
v 0.094801 -0.145161 0.048387
v 0.096243 -0.112903 -0.145161
v 0.112903 -0.112903 -0.113664
v 0.112903 -0.114011 -0.112903
v 0.112570 -0.112903 -0.048387
v 0.112903 -0.113810 -0.048387
v 0.112903 -0.112903 -0.049957
v 0.104010 -0.112903 -0.016129
v 0.112903 -0.135233 -0.016129
v 0.098581 -0.112903 0.016129
v 0.090412 -0.112903 0.048387
v 0.112903 -0.080645 -0.150353
v 0.112903 -0.088132 -0.145161
v 0.105252 -0.080645 -0.048387
v 0.112903 -0.080645 -0.068568
v 0.098668 -0.080645 -0.016129
v 0.094591 -0.080645 0.016129
v 0.112903 -0.048387 -0.150413
v 0.108303 -0.048387 -0.080645
v 0.112903 -0.063493 -0.080645
v 0.112903 -0.048387 -0.098471
v 0.098739 -0.048387 -0.048387
v 0.094499 -0.048387 -0.016129
v 0.085853 -0.048387 0.016129
v 0.112903 -0.042106 -0.145161
v 0.097085 -0.016129 -0.145161
v 0.102313 -0.016129 -0.112903
v 0.112903 -0.039609 -0.112903
v 0.098184 -0.016129 -0.080645
v 0.093482 -0.016129 -0.048387
v 0.083805 -0.016129 -0.016129
v 0.084438 0.016129 -0.112903
v 0.089267 0.016129 -0.080645
v 0.084556 0.209677 -0.048387
v 0.096583 0.241935 -0.048387
v 0.088510 0.241935 -0.016129
v 0.105776 0.274194 -0.048387
v 0.098236 0.274194 -0.016129
v 0.107614 0.306452 -0.048387
v 0.102969 0.306452 -0.016129
v 0.081240 0.306452 0.016129
v 0.092965 0.338710 -0.048387
v 0.086658 0.338710 -0.016129
v 0.145161 -0.403226 -0.036030
v 0.145161 -0.409008 -0.016129
v 0.134181 -0.403226 0.016129
v 0.145161 -0.403226 0.003488
v 0.145161 -0.370968 -0.083739
v 0.145161 -0.374238 -0.080645
v 0.145161 -0.398136 -0.048387
v 0.145161 -0.397050 0.016129
v 0.128862 -0.370968 0.048387
v 0.145161 -0.370968 0.035706
v 0.145161 -0.338710 -0.088787
v 0.127836 -0.338710 0.048387
v 0.145161 -0.338710 0.032602
v 0.145161 -0.306452 -0.082430
v 0.115140 -0.306452 0.048387
v 0.145161 -0.306452 0.016576
v 0.145161 -0.302968 -0.080645
v 0.123545 -0.274194 -0.080645
v 0.145161 -0.274194 -0.054589
v 0.128553 -0.274194 0.016129
v 0.145161 -0.305848 0.016129
v 0.145161 -0.274194 -0.013501
v 0.130390 -0.241935 -0.048387
v 0.145161 -0.268177 -0.048387
v 0.130168 -0.241935 -0.016129
v 0.145161 -0.271237 -0.016129
v 0.118763 -0.241935 0.016129
v 0.116766 -0.209677 -0.080645
v 0.127558 -0.209677 -0.048387
v 0.126916 -0.209677 -0.016129
v 0.114201 -0.209677 0.016129
v 0.118556 -0.177419 -0.080645
v 0.125520 -0.177419 -0.048387
v 0.123268 -0.177419 -0.016129
v 0.122656 -0.145161 -0.080645
v 0.122902 -0.145161 -0.048387
v 0.117849 -0.145161 -0.016129
v 0.113292 -0.112903 -0.112903
v 0.119724 -0.112903 -0.080645
v 0.118494 -0.080645 -0.145161
v 0.121494 -0.080645 -0.112903
v 0.118745 -0.080645 -0.080645
v 0.118067 -0.048387 -0.145161
v 0.117776 -0.048387 -0.112903
v 0.157398 -0.403226 -0.016129
v 0.154733 -0.370968 -0.080645
v 0.177419 -0.370968 -0.067695
v 0.177419 -0.384554 -0.048387
v 0.177419 -0.386936 -0.016129
v 0.167956 -0.370968 0.016129
v 0.177419 -0.370968 0.002798
v 0.162648 -0.338710 -0.080645
v 0.177419 -0.338710 -0.065027
v 0.161442 -0.338710 0.016129
v 0.177419 -0.338710 -0.008931
v 0.147698 -0.306452 -0.080645
v 0.177419 -0.324391 -0.048387
v 0.166921 -0.306452 -0.048387
v 0.163982 -0.306452 -0.016129
v 0.177419 -0.331170 -0.016129
v 0.145591 -0.306452 0.016129
v 0.148702 -0.274194 -0.048387
v 0.147047 -0.274194 -0.016129
v 0.188836 -0.370968 -0.048387
v 0.188232 -0.370968 -0.016129
v 0.184857 -0.338710 -0.048387
v 0.182071 -0.338710 -0.016129
vn -0.953667 -0.229844 -0.194142
vn -0.679104 -0.263138 -0.685256
vn -0.759185 -0.561195 -0.329695
vn -0.835762 -0.545826 0.059790
vn -0.962147 -0.171915 0.211465
vn -0.710362 -0.505130 0.490133
vn -0.913165 -0.007873 0.407514
vn -0.723500 -0.064152 0.687337
vn -0.970078 0.051638 -0.237238
vn -0.788735 0.009519 -0.614659
vn -0.986346 0.083338 0.142045
vn -0.909803 0.111862 0.399682
vn -0.727857 0.108309 0.677122
vn -0.968598 0.085065 -0.233628
vn -0.839431 0.003323 -0.543457
vn -0.961276 0.179878 0.208787
vn -0.818650 0.276117 0.503558
vn -0.755750 0.296562 0.583860
vn -0.999904 -0.012699 -0.005622
vn -0.881677 -0.194879 -0.429730
vn -0.954635 0.125371 0.270102
vn -0.839011 0.244647 0.486012
vn -0.964857 -0.173441 -0.197409
vn -0.611767 -0.322414 -0.722351
vn -0.646611 -0.345383 -0.680151
vn -0.985219 -0.042954 0.165829
vn -0.945122 -0.011688 0.326508
vn -0.980162 -0.101492 -0.170239
vn -0.757278 -0.233636 -0.609872
vn -0.979813 -0.029199 0.197773
vn -0.904580 0.044067 0.424021
vn -0.987287 0.032726 -0.155540
vn -0.910325 -0.010026 -0.413772
vn -0.966785 0.071568 0.245366
vn -0.863712 0.103429 0.493259
vn -0.983530 0.087217 -0.158312
vn -0.923515 0.099708 -0.370376
vn -0.963094 0.146175 0.226016
vn -0.851767 0.143956 0.503756
vn -0.986220 0.163235 -0.026913
vn -0.890179 0.174434 -0.420898
vn -0.949541 0.189806 0.249692
vn -0.863963 0.174191 0.472467
vn -0.951201 0.175469 -0.253826
vn -0.880183 0.243956 -0.407140
vn -0.955460 0.170652 0.240778
vn -0.934451 0.311795 0.172004
vn -0.504492 -0.750669 -0.426596
vn -0.366513 -0.661521 -0.654261
vn -0.205716 -0.945857 -0.251067
vn -0.281988 -0.958935 0.030426
vn -0.557620 -0.805004 0.202555
vn -0.330629 -0.908777 0.254578
vn -0.660390 -0.609049 0.439254
vn -0.577183 -0.557766 0.596454
vn -0.540969 -0.406851 -0.736088
vn -0.363002 -0.214290 -0.906813
vn -0.302077 -0.545945 -0.781469
vn -0.606523 -0.497354 0.620298
vn -0.726799 -0.018475 0.686602
vn -0.607082 -0.294989 0.737857
vn -0.580923 -0.093717 -0.808546
vn -0.337648 -0.071572 -0.938547
vn -0.733249 0.058546 0.677435
vn -0.628857 0.098530 0.771253
vn -0.624610 -0.016798 -0.780757
vn -0.355656 -0.059381 -0.932729
vn -0.783150 0.234109 0.576081
vn -0.713998 0.238464 0.658287
vn -0.675866 0.265409 0.687577
vn -0.653406 -0.139731 -0.744000
vn -0.387825 -0.238182 -0.890428
vn -0.863473 0.085629 0.497073
vn -0.816071 0.106465 0.568061
vn -0.724518 0.131772 0.676543
vn -0.436176 -0.387280 -0.812259
vn -0.863170 0.036215 0.503614
vn -0.827146 0.017648 0.561709
vn -0.741665 0.015242 0.670598
vn -0.530701 -0.298630 -0.793207
vn -0.361726 -0.290059 -0.886013
vn -0.366099 -0.418404 -0.831210
vn -0.875321 0.092669 0.474579
vn -0.841693 0.053421 0.537308
vn -0.755564 0.019655 0.654780
vn -0.564931 -0.122160 -0.816045
vn -0.431334 -0.168007 -0.886411
vn -0.873473 0.130874 0.468954
vn -0.865753 0.113655 0.487396
vn -0.781565 0.064873 0.620441
vn -0.605833 0.011234 -0.795512
vn -0.534787 -0.014154 -0.844869
vn -0.875204 0.123139 0.467820
vn -0.875882 0.124729 0.466125
vn -0.826247 0.084583 0.556922
vn -0.705772 0.130249 -0.696363
vn -0.607020 0.119898 -0.785590
vn -0.913060 0.131085 0.386185
vn -0.879692 0.109019 0.462880
vn -0.867729 0.124259 0.481255
vn -0.847972 0.108677 0.518780
vn -0.782177 0.241780 -0.574231
vn -0.538782 0.271369 -0.797542
vn -0.932134 0.219420 0.288063
vn -0.873966 0.196317 0.444571
vn -0.846956 0.183161 0.499117
vn -0.748787 0.356798 -0.558581
vn -0.481782 0.378081 -0.790532
vn -0.927066 0.346636 -0.142801
vn -0.894659 0.283640 0.345157
vn -0.838933 0.302352 0.452520
vn -0.818400 0.288786 0.496814
vn -0.606386 0.483959 -0.630935
vn -0.850832 0.441352 -0.285121
vn -0.605802 0.496673 -0.621546
vn -0.902483 0.401547 0.155833
vn -0.842043 0.304272 0.445401
vn -0.758863 0.561893 -0.329246
vn -0.860680 0.456901 0.224658
vn -0.938085 -0.171682 0.300868
vn -0.602020 -0.240915 -0.761270
vn -0.606909 -0.735119 -0.302096
vn -0.842337 -0.411605 0.347922
vn -0.999989 0.002344 -0.004107
vn -0.607870 -0.112104 -0.786083
vn -0.821492 0.270460 0.501998
vn -0.740304 0.645430 -0.188069
vn -0.209377 -0.792776 -0.572423
vn -0.137421 -0.950101 -0.280041
vn -0.163636 -0.986264 -0.022489
vn -0.224261 -0.955823 0.190022
vn -0.302088 -0.885184 0.353826
vn -0.551230 -0.551779 0.625848
vn -0.479669 -0.617778 0.623112
vn -0.191889 -0.303091 -0.933442
vn -0.219697 -0.516436 -0.827664
vn -0.597520 -0.274557 0.753384
vn -0.168674 -0.061936 -0.983724
vn -0.609627 0.126263 0.782568
vn -0.177769 -0.080719 -0.980756
vn -0.660762 0.192448 0.725505
vn -0.567577 0.223161 0.792499
vn -0.190963 -0.258601 -0.946920
vn -0.701245 0.058479 0.710517
vn -0.552270 0.087721 0.829037
vn -0.297503 -0.440751 -0.846895
vn -0.191075 -0.388432 -0.901449
vn -0.153585 -0.445938 -0.881789
vn -0.729071 -0.009725 0.684369
vn -0.563423 -0.050636 0.824616
vn -0.154605 -0.315430 -0.936270
vn -0.756324 -0.001531 0.654195
vn -0.627859 -0.060514 0.775971
vn -0.245693 -0.266428 -0.932015
vn -0.795994 0.028387 0.604638
vn -0.687721 -0.031756 0.725281
vn -0.373186 -0.120690 -0.919873
vn -0.276635 -0.138202 -0.950985
vn -0.257173 -0.215751 -0.941973
vn -0.834035 0.041233 0.550169
vn -0.714214 0.007356 0.699889
vn -0.454188 0.060290 -0.888863
vn -0.321041 0.008024 -0.947031
vn -0.880414 0.106661 0.462055
vn -0.843621 0.070518 0.532289
vn -0.727918 0.044034 0.684248
vn -0.492364 0.180539 -0.851459
vn -0.376655 0.173884 -0.909888
vn -0.875850 0.201332 0.438579
vn -0.853926 0.208631 0.476743
vn -0.718196 0.212978 0.662446
vn -0.480053 0.344890 -0.806598
vn -0.451116 0.395038 -0.800275
vn -0.859915 0.266975 0.435053
vn -0.841091 0.277150 0.464493
vn -0.772512 0.335200 0.539320
vn -0.700961 0.358318 0.616654
vn -0.553298 0.510509 -0.658211
vn -0.404698 0.454304 -0.793617
vn -0.854704 0.319483 0.409160
vn -0.824923 0.312263 0.471162
vn -0.756680 0.340586 0.558064
vn -0.490367 0.528360 -0.693092
vn -0.741627 0.508563 -0.437440
vn -0.435922 0.502792 -0.746440
vn -0.899226 0.414145 0.140984
vn -0.866575 0.321112 0.382015
vn -0.768128 0.334494 0.545979
vn -0.742753 0.390909 0.543606
vn -0.628533 0.555969 -0.543915
vn -0.902825 0.430007 -0.001338
vn -0.686984 0.542644 -0.483312
vn -0.883014 0.376400 0.280375
vn -0.796246 0.271942 0.540408
vn -0.763495 0.571237 -0.301270
vn -0.396124 -0.427854 -0.812420
vn -0.530742 -0.721103 -0.445336
vn -0.643900 -0.627253 0.438117
vn -0.755937 -0.249119 0.605392
vn -0.488303 -0.060175 0.870597
vn -0.574769 -0.028653 -0.817814
vn -0.110966 0.232084 -0.966345
vn -0.200284 -0.284033 -0.937663
vn -0.624164 0.242222 0.742797
vn -0.393800 0.231335 0.889610
vn -0.419874 0.464435 -0.779748
vn -0.628422 0.650655 -0.426303
vn -0.229544 0.680324 -0.696038
vn -0.397816 0.723415 0.564282
vn -0.271778 0.690774 0.670051
vn -0.125311 0.984272 0.124522
vn -0.174270 -0.836928 -0.518827
vn -0.149280 -0.468798 -0.870600
vn -0.126201 -0.893643 -0.430669
vn -0.150592 -0.945529 -0.288613
vn -0.206093 -0.976081 -0.069213
vn -0.264163 -0.957625 0.114770
vn -0.282588 -0.908942 0.306544
vn -0.425870 -0.732895 0.530564
vn -0.121729 -0.263444 -0.956964
vn -0.474983 -0.455549 0.752905
vn -0.511651 -0.133418 0.848771
vn -0.452476 -0.238807 0.859207
vn -0.108887 -0.062120 -0.992111
vn -0.514625 0.162570 0.841862
vn -0.404859 0.119294 0.906564
vn -0.109299 -0.084246 -0.990432
vn -0.535936 0.262985 0.802254
vn -0.375219 0.208194 0.903253
vn -0.123436 -0.240004 -0.962892
vn -0.468314 0.267454 0.842111
vn -0.501500 0.074059 0.861982
vn -0.083356 -0.375494 -0.923069
vn -0.101828 -0.418493 -0.902494
vn -0.527995 -0.104119 0.842840
vn -0.557364 -0.106723 0.823381
vn -0.415278 -0.103848 0.903748
vn -0.088811 -0.355806 -0.930330
vn -0.609443 -0.105381 0.785795
vn -0.383512 -0.122497 0.915376
vn -0.203219 -0.397139 -0.894976
vn -0.174032 -0.268444 -0.947444
vn -0.108393 -0.446440 -0.888224
vn -0.636964 -0.037554 0.769978
vn -0.384242 -0.070472 0.920539
vn -0.189331 -0.175191 -0.966158
vn -0.650078 -0.003842 0.759858
vn -0.413878 -0.028988 0.909871
vn -0.265718 -0.039595 -0.963237
vn -0.673245 0.053891 0.737453
vn -0.435002 0.008514 0.900389
vn -0.337597 0.098115 -0.936163
vn -0.684840 0.187811 0.704074
vn -0.447181 0.146593 0.882349
vn -0.462472 0.383759 -0.799280
vn -0.360087 0.319469 -0.876514
vn -0.716865 0.319494 0.619700
vn -0.687974 0.339559 0.641398
vn -0.585887 0.331546 0.739468
vn -0.422837 0.490555 -0.761948
vn -0.388320 0.485359 -0.783348
vn -0.727679 0.330299 0.601154
vn -0.621519 0.341137 0.705223
vn -0.374186 0.538453 -0.755019
vn -0.380790 0.485449 -0.786980
vn -0.798051 0.243396 0.551247
vn -0.755864 0.299535 0.582193
vn -0.665696 0.382225 0.640900
vn -0.530641 0.545115 -0.649053
vn -0.390905 0.451994 -0.801807
vn -0.883645 0.304985 0.355185
vn -0.832053 0.175654 0.526149
vn -0.756955 0.170651 0.630791
vn -0.560567 0.525376 -0.640113
vn -0.867735 0.440121 -0.230932
vn -0.545473 0.447692 -0.708541
vn -0.925476 0.307884 0.220683
vn -0.882811 0.240089 0.403736
vn -0.754848 0.177131 0.631529
vn -0.793456 0.436528 -0.424111
vn -0.479307 0.357086 -0.801720
vn -0.941301 0.322486 0.099774
vn -0.913630 0.254508 0.317026
vn -0.769229 0.204322 0.605425
vn -0.852586 0.414268 -0.318557
vn -0.943230 0.327437 0.055689
vn -0.684612 -0.701568 -0.197759
vn -0.279221 -0.466459 -0.839316
vn -0.530855 -0.619238 -0.578565
vn -0.759336 -0.645904 0.078849
vn -0.743706 -0.588727 0.316705
vn -0.655644 -0.414068 0.631410
vn -0.227214 -0.448136 -0.864608
vn -0.568984 -0.351421 0.743478
vn -0.458656 0.276978 0.844344
vn -0.414155 -0.019858 0.909990
vn -0.057062 0.019180 -0.998186
vn -0.139780 -0.200796 -0.969609
vn -0.183516 0.511461 0.839482
vn -0.180360 0.469151 0.864504
vn -0.073910 0.484426 -0.871705
vn 0.068792 0.775078 -0.628110
vn 0.003950 0.751940 0.659220
vn 0.003603 0.852182 0.523233
vn 0.040105 0.998621 -0.033875
vn -0.377474 -0.916784 0.130460
vn -0.382164 -0.923091 -0.043057
vn -0.271060 -0.961078 0.053441
vn -0.332803 -0.895577 0.295270
vn -0.100808 -0.480157 -0.871371
vn -0.099433 -0.876977 -0.470132
vn -0.126380 -0.924992 -0.358353
vn -0.224664 -0.949476 -0.219138
vn -0.280585 -0.913453 0.294746
vn -0.263637 -0.875725 0.404477
vn -0.429804 -0.572560 0.698172
vn -0.274889 -0.559873 0.781651
vn -0.066108 -0.233249 -0.970167
vn -0.219809 -0.105380 0.969835
vn -0.045991 -0.055903 -0.997376
vn -0.156709 0.202963 0.966565
vn -0.041783 -0.099959 -0.994114
vn -0.135358 0.173017 0.975573
vn -0.016970 -0.192299 -0.981190
vn -0.461124 -0.021246 0.887081
vn -0.252442 0.067131 0.965280
vn -0.035587 -0.358979 -0.932667
vn 0.004015 -0.392786 -0.919621
vn -0.213101 -0.073870 0.974234
vn -0.015477 -0.375453 -0.926712
vn -0.164573 -0.079855 0.983127
vn -0.082835 -0.330257 -0.940249
vn -0.034392 -0.478518 -0.877404
vn -0.173537 -0.076126 0.981881
vn -0.107669 -0.233038 -0.966489
vn -0.202535 -0.052673 0.977858
vn -0.203008 -0.149462 -0.967703
vn -0.200222 0.013863 0.979652
vn -0.261554 0.123999 -0.957191
vn -0.167632 0.103522 0.980399
vn -0.243727 0.332026 -0.911239
vn -0.527171 0.333882 0.781418
vn -0.241134 0.266208 0.933267
vn -0.399309 0.508063 -0.763167
vn -0.215792 0.452952 -0.865025
vn -0.561700 0.356390 0.746645
vn -0.210667 0.322318 0.922893
vn -0.275478 0.562369 -0.779649
vn -0.373535 0.530251 -0.761121
vn -0.196462 0.554618 -0.808580
vn -0.654181 0.200165 0.729371
vn -0.418900 0.315343 0.851517
vn -0.252370 0.411457 0.875793
vn -0.265025 0.530801 -0.804992
vn -0.278843 0.461928 -0.841944
vn -0.688640 0.157211 0.707855
vn -0.305202 0.188622 0.933420
vn -0.462526 0.481859 -0.744232
vn -0.229104 0.426520 -0.874981
vn -0.727172 0.165674 0.666163
vn -0.243286 0.159891 0.956685
vn -0.376511 0.499644 -0.780126
vn -0.407854 0.409618 -0.816007
vn -0.810609 0.244924 0.531907
vn -0.753505 0.213897 0.621673
vn -0.202943 0.170304 0.964267
vn -0.785683 0.273229 -0.555021
vn -0.364960 0.272941 -0.890116
vn -0.957102 0.286847 0.040922
vn -0.822727 0.228508 0.520485
vn -0.548780 0.279728 0.787777
vn -0.193367 0.272154 0.942625
vn -0.824276 -0.046787 -0.564251
vn -0.319295 0.026573 -0.947283
vn -0.998869 0.031871 -0.035284
vn -0.876751 0.096510 0.471161
vn -0.488898 0.170686 0.855480
vn -0.714773 -0.344243 -0.608767
vn -0.292935 -0.218360 -0.930864
vn -0.958047 -0.270822 0.093816
vn -0.809418 -0.131817 0.572248
vn -0.491989 -0.013239 0.870501
vn -0.215809 -0.386382 -0.896736
vn -0.668824 -0.246754 0.701275
vn -0.426330 -0.035695 0.903863
vn -0.163763 -0.416400 -0.894311
vn -0.053679 -0.114263 -0.991999
vn -0.126209 -0.407118 -0.904614
vn -0.283045 0.259036 0.923464
vn 0.018208 0.075649 -0.996968
vn -0.148479 0.627916 0.763987
vn -0.048881 0.632070 0.773368
vn 0.114651 0.591314 -0.798250
vn 0.154563 0.755635 -0.636495
vn 0.049111 0.822600 0.566496
vn 0.107381 0.871672 0.478180
vn 0.111207 0.986039 -0.123939
vn -0.258774 -0.946717 -0.191736
vn -0.164827 -0.887288 -0.430757
vn -0.152386 -0.972534 -0.175946
vn -0.151191 -0.981929 0.113829
vn -0.193674 -0.946748 0.257213
vn -0.311870 -0.876197 0.367446
vn -0.051335 -0.865905 0.497567
vn -0.018821 -0.477445 -0.878460
vn -0.024827 -0.855579 -0.517076
vn -0.105937 -0.906133 -0.409512
vn -0.106064 -0.856953 0.504363
vn 0.018320 -0.522785 0.852268
vn 0.023580 -0.201742 -0.979155
vn 0.129258 -0.026140 0.991266
vn 0.051256 -0.032555 -0.998155
vn 0.126946 0.190108 0.973521
vn 0.078905 -0.078088 -0.993819
vn 0.083652 0.143581 0.986097
vn 0.128305 -0.144191 -0.981197
vn 0.071875 0.034418 0.996820
vn 0.085945 -0.365591 -0.926799
vn 0.147124 -0.416931 -0.896952
vn 0.077414 -0.049413 0.995774
vn 0.097899 -0.396403 -0.912842
vn 0.057740 -0.093554 0.993939
vn 0.043530 -0.359856 -0.931992
vn 0.112613 -0.494060 -0.862104
vn 0.060144 -0.090001 0.994124
vn 0.013057 -0.312086 -0.949964
vn 0.100068 -0.032225 0.994459
vn -0.083194 -0.259420 -0.962175
vn 0.144002 0.034397 0.988979
vn -0.225191 -0.023671 -0.974027
vn -0.077298 0.070727 -0.994496
vn -0.046660 -0.145864 -0.988204
vn 0.177735 0.136584 0.974554
vn -0.113889 0.300674 -0.946903
vn -0.098385 0.359547 -0.927926
vn 0.245930 0.284058 0.926730
vn -0.001128 0.492973 -0.870044
vn 0.080573 0.335843 0.938466
vn -0.045511 0.605229 -0.794749
vn 0.103802 0.595274 -0.796790
vn 0.119726 0.445051 0.887466
vn 0.356823 0.315815 0.879169
vn 0.015191 0.534423 -0.845080
vn 0.084374 0.473885 -0.876535
vn 0.302431 0.167286 0.938377
vn 0.135551 0.402428 -0.905361
vn 0.198457 0.129897 0.971464
vn -0.036815 0.443117 -0.895707
vn -0.026892 0.387634 -0.921421
vn 0.063685 0.174947 0.982516
vn -0.077831 0.225302 -0.971175
vn 0.457384 0.206159 0.865042
vn 0.218614 0.184370 0.958236
vn -0.150167 0.007634 -0.988631
vn 0.129885 0.042132 0.990634
vn -0.171119 -0.186281 -0.967480
vn -0.005553 -0.059341 0.998222
vn -0.144469 -0.318294 -0.936919
vn -0.053098 0.044853 0.997582
vn -0.005972 -0.057113 -0.998350
vn -0.066724 -0.287412 -0.955480
vn -0.047691 0.396303 0.916880
vn 0.053844 0.121753 -0.991099
vn -0.026209 0.692721 0.720729
vn -0.009740 0.728856 0.684598
vn 0.148153 0.693941 -0.704625
vn 0.159710 0.729165 -0.665440
vn 0.066738 0.864915 0.497461
vn 0.079000 0.889242 0.450564
vn 0.093169 0.957765 -0.272039
vn -0.049586 -0.897625 -0.437963
vn -0.024957 -0.977565 -0.209151
vn -0.030209 -0.998085 0.053968
vn 0.011878 -0.955603 0.294417
vn 0.046846 -0.834441 0.549102
vn 0.039667 -0.457567 -0.888290
vn 0.012681 -0.833557 -0.552288
vn -0.020152 -0.876081 -0.481742
vn 0.168966 -0.766974 0.619032
vn 0.330060 -0.320720 0.887806
vn 0.069608 -0.173396 -0.982389
vn 0.345481 0.027711 0.938016
vn 0.096332 -0.011430 -0.995284
vn 0.370812 0.153982 0.915854
vn 0.132496 -0.028526 -0.990773
vn 0.341304 0.115973 0.932771
vn 0.203215 -0.171510 -0.963996
vn 0.335512 0.012754 0.941950
vn 0.233268 -0.369333 -0.899544
vn 0.276824 -0.397528 -0.874837
vn 0.342447 -0.071258 0.936831
vn 0.257053 -0.413823 -0.873313
vn 0.358763 -0.080230 0.929974
vn 0.172618 -0.397254 -0.901328
vn 0.259630 -0.466187 -0.845732
vn 0.406181 -0.029815 0.913306
vn 0.107439 -0.378893 -0.919183
vn 0.452653 0.028812 0.891221
vn 0.123038 -0.301679 -0.945437
vn 0.476797 0.072591 0.876011
vn 0.043306 -0.039624 -0.998276
vn 0.121208 -0.175417 -0.977004
vn 0.489893 0.222033 0.843034
vn 0.044015 0.335111 -0.941150
vn 0.154471 0.421784 -0.893441
vn 0.565981 0.332660 0.754323
vn 0.752780 0.362020 0.549786
vn 0.760017 0.341081 0.553207
vn 0.236854 0.528390 -0.815294
vn 0.676565 0.340675 0.652841
vn 0.720392 0.369671 0.586838
vn 0.345024 0.654691 -0.672561
vn 0.434827 0.610023 -0.662417
vn 0.755938 0.301849 0.580900
vn 0.790681 0.367274 0.489831
vn 0.817921 0.223644 0.530084
vn 0.323130 0.525801 -0.786842
vn 0.459604 0.427389 -0.778526
vn 0.805793 0.127841 0.578234
vn 0.808736 0.136196 0.572186
vn 0.469068 0.321532 -0.822552
vn 0.824397 0.039778 0.564613
vn 0.934350 0.104595 0.340661
vn 0.946308 -0.013812 0.322971
vn 0.814477 0.059113 0.577177
vn 0.294298 0.375458 -0.878874
vn 0.464732 0.280643 -0.839800
vn 0.793169 -0.090245 0.602277
vn 0.732070 0.018595 0.680975
vn 0.782270 0.050349 0.620901
vn 0.347207 0.010774 -0.937727
vn 0.633189 -0.018053 0.773787
vn 0.094221 -0.060929 -0.993685
vn 0.517828 -0.128937 0.845712
vn 0.061137 -0.226536 -0.972082
vn 0.456082 -0.149786 0.877242
vn 0.105796 -0.233206 -0.966655
vn 0.370851 -0.021965 0.928433
vn 0.060394 -0.016318 -0.998041
vn 0.162454 -0.241154 -0.956793
vn 0.228302 0.432180 0.872410
vn 0.194232 0.218728 -0.956259
vn 0.155631 0.358534 -0.920452
vn 0.331710 0.556278 -0.761921
vn 0.256978 0.647510 0.717421
vn 0.110661 0.762434 0.637533
vn 0.184819 0.898689 0.397744
vn 0.259548 0.949487 -0.176378
vn 0.175676 0.876783 0.447649
vn -0.005284 -0.899946 -0.435969
vn 0.044246 -0.984230 -0.171272
vn 0.086336 -0.985302 0.147399
vn 0.184599 -0.869884 0.457411
vn 0.261405 -0.833761 0.486323
vn 0.060718 -0.418688 -0.906098
vn 0.033885 -0.818128 -0.574038
vn 0.003386 -0.857661 -0.514203
vn 0.358560 -0.668197 0.651880
vn 0.373571 -0.629094 0.681679
vn 0.513129 -0.370827 0.774071
vn 0.102165 -0.140967 -0.984729
vn 0.502311 -0.193958 0.842653
vn 0.471439 0.002202 0.881896
vn 0.140567 0.021622 -0.989835
vn 0.502478 0.195280 0.842248
vn 0.633380 0.198702 0.747896
vn 0.635511 0.215380 0.741443
vn 0.214551 0.035303 -0.976075
vn 0.566443 0.157148 0.808979
vn 0.661254 0.184989 0.726995
vn 0.375349 -0.052971 -0.925369
vn 0.620581 0.070930 0.780928
vn 0.675409 0.031309 0.736779
vn 0.383898 -0.387846 -0.837973
vn 0.450266 -0.235238 -0.861350
vn 0.631896 -0.053219 0.773224
vn 0.706089 -0.043889 0.706762
vn 0.373415 -0.387135 -0.843023
vn 0.566275 -0.350617 -0.745922
vn 0.641627 -0.077840 0.763057
vn 0.757434 -0.037410 0.651839
vn 0.315807 -0.512515 -0.798495
vn 0.529672 -0.385672 -0.755450
vn 0.644211 -0.017980 0.764637
vn 0.791251 0.052012 0.609276
vn 0.311117 -0.409350 -0.857694
vn 0.586011 -0.512419 -0.627709
vn 0.735605 0.100308 0.669943
vn 0.795331 0.182914 0.577920
vn 0.356227 -0.251397 -0.899946
vn 0.863935 0.211408 0.457081
vn 0.860047 0.261031 0.438386
vn 0.857262 0.293546 0.423004
vn 0.786545 0.105856 0.608393
vn 0.233133 0.139288 -0.962418
vn 0.417788 0.108327 -0.902063
vn 0.898586 0.290029 0.329282
vn 0.814834 0.375160 0.441929
vn 0.855468 0.226569 0.465662
vn 0.434422 0.442090 -0.784751
vn 0.907289 0.295469 0.299208
vn 0.803505 0.438130 0.403016
vn 0.829368 0.412971 0.376303
vn 0.904209 0.270444 0.330554
vn 0.526456 0.633802 -0.566691
vn 0.484794 0.707544 -0.514156
vn 0.591962 0.691512 -0.413994
vn 0.919948 0.330778 0.210431
vn 0.859891 0.417702 0.293449
vn 0.809334 0.502173 0.304631
vn 0.932205 0.266179 0.245240
vn 0.858220 0.424321 0.288809
vn 0.944933 0.208283 0.252428
vn 0.900372 0.259514 0.349261
vn 0.782780 0.473397 -0.403919
vn 0.662977 0.618032 -0.422490
vn 0.950264 0.307841 -0.047250
vn 0.814827 0.574512 -0.077420
vn 0.974688 0.187068 0.122426
vn 0.962729 0.167707 0.212195
vn 0.937585 0.208197 0.278546
vn 0.916765 0.249189 -0.312165
vn 0.992073 0.105776 0.067848
vn 0.977539 0.079384 0.195231
vn 0.953559 0.100788 0.283843
vn 0.908411 0.166921 -0.383311
vn 0.997923 0.049044 -0.041767
vn 0.974467 0.013887 0.224101
vn 0.970697 -0.046559 -0.235754
vn 0.969877 -0.093100 0.225102
vn 0.952147 -0.065383 0.298564
vn 0.920864 -0.325537 -0.214557
vn 0.929044 -0.222818 0.295347
vn 0.925462 -0.108967 0.362832
vn 0.392317 -0.182279 -0.901588
vn 0.897294 -0.431074 0.095070
vn 0.916766 -0.344862 0.201518
vn 0.857143 -0.326349 0.398501
vn 0.838244 -0.197167 0.508401
vn 0.356288 -0.248159 -0.900820
vn 0.805608 -0.311915 0.503691
vn 0.767716 -0.275165 0.578703
vn 0.754289 -0.240365 0.610960
vn 0.478958 -0.147031 -0.865437
vn 0.668323 -0.197779 0.717097
vn 0.808360 -0.188765 0.557604
vn 0.367033 0.063073 -0.928067
vn 0.525767 0.081731 -0.846693
vn 0.630151 -0.107163 0.769042
vn 0.493720 0.295679 0.817810
vn 0.541295 0.380055 -0.750039
vn 0.426819 0.576148 0.697050
vn 0.358162 0.664295 0.656074
vn 0.467748 0.826055 -0.314396
vn 0.428259 0.863097 0.267689
vn 0.040368 -0.912502 -0.407076
vn 0.079053 -0.986117 -0.146027
vn 0.162962 -0.966799 0.196832
vn 0.334303 -0.737378 0.586954
vn 0.088327 -0.363460 -0.927413
vn 0.050282 -0.801784 -0.595495
vn 0.029671 -0.849414 -0.526892
vn 0.395502 -0.639618 0.659141
vn 0.545200 -0.163597 0.822188
vn 0.143397 -0.091300 -0.985445
vn 0.647965 -0.017454 0.761470
vn 0.617108 0.075921 0.783207
vn 0.242380 0.114020 -0.963458
vn 0.652991 0.236845 0.719380
vn 0.372412 0.164946 -0.913292
vn 0.718100 0.217627 0.661038
vn 0.716197 0.317305 0.621594
vn 0.750509 0.237784 0.616600
vn 0.636512 0.276626 -0.719951
vn 0.501961 -0.082753 -0.860922
vn 0.811838 0.283446 -0.510467
vn 0.763783 0.098670 0.637887
vn 0.820771 0.104104 0.561692
vn 0.524575 -0.128120 -0.841669
vn 0.830323 -0.141389 -0.539049
vn 0.827672 0.025527 0.560631
vn 0.857491 0.080377 0.508182
vn 0.680652 -0.322385 -0.657861
vn 0.651452 -0.206346 -0.730090
vn 0.905039 0.068890 0.419714
vn 0.922948 0.089040 0.374485
vn 0.920152 0.152188 0.360776
vn 0.842421 -0.004941 0.538798
vn 0.717857 -0.282670 -0.636222
vn 0.792758 -0.233716 -0.562949
vn 0.940963 0.195042 0.276672
vn 0.894197 0.277487 0.351301
vn 0.890426 0.074436 0.448999
vn 0.668003 -0.511606 -0.540399
vn 0.742102 -0.501515 -0.444710
vn 0.772718 -0.222793 -0.594366
vn 0.944645 0.235279 0.228668
vn 0.932654 0.298929 0.201986
vn 0.943953 0.135919 0.300797
vn 0.952307 0.218955 0.212534
vn 0.910180 0.348152 0.224417
vn 0.966905 0.153488 0.203803
vn 0.909885 0.170468 0.378219
vn 0.556523 -0.194335 -0.807785
vn 0.737062 -0.508140 -0.445570
vn 0.951698 0.194982 0.237178
vn 0.896488 0.242285 0.370955
vn 0.965621 0.175012 0.192218
vn 0.949223 0.199022 0.243650
vn 0.608936 0.185145 -0.771310
vn 0.937693 0.258584 0.232092
vn 0.900357 0.304341 0.311021
vn 0.891708 0.377732 0.249349
vn 0.954117 0.202519 0.220562
vn 0.957507 0.215138 0.192082
vn 0.919333 0.266074 0.289880
vn 0.788156 0.517240 -0.333575
vn 0.807442 0.515248 -0.287328
vn 0.918144 0.396133 0.009524
vn 0.876412 0.481395 -0.012682
vn 0.950962 0.280584 0.130172
vn 0.928466 0.285878 0.237120
vn 0.918513 0.304784 0.251875
vn 0.847839 0.505138 -0.161261
vn 0.915935 0.389738 0.095752
vn 0.934873 -0.341045 -0.098491
vn 0.932302 -0.293519 -0.211328
vn 0.908585 -0.302515 0.288026
vn 0.934471 -0.143545 -0.325821
vn 0.893157 -0.200203 0.402727
vn 0.919131 0.258137 -0.297597
vn 0.929605 0.122871 0.347473
vn 0.829138 0.078759 0.553468
vn 0.834284 0.543936 -0.090021
vn 0.833707 0.454827 0.313153
vn 0.134146 -0.927760 -0.348233
vn 0.226489 -0.972782 0.048978
vn 0.336154 -0.813507 0.474560
vn 0.434873 -0.844344 0.312998
vn 0.143472 -0.276595 -0.950216
vn 0.218336 -0.784121 -0.580933
vn 0.257573 -0.852884 -0.454142
vn 0.559035 -0.607763 0.564007
vn 0.549429 -0.324295 0.770039
vn 0.651318 -0.115997 0.749886
vn 0.281351 0.020543 -0.959385
vn 0.621213 0.101624 0.777024
vn 0.684804 0.231181 0.691086
vn 0.345744 0.191198 -0.918643
vn 0.672204 0.312753 0.671064
vn 0.684173 0.341033 0.644673
vn 0.620378 0.466084 -0.630790
vn 0.654979 0.382991 -0.651399
vn 0.718672 0.426042 -0.549544
vn 0.780154 0.347728 0.520043
vn 0.784187 0.423277 0.453747
vn 0.791266 0.414595 0.449455
vn 0.957634 0.216333 -0.190098
vn 0.840278 0.463939 -0.280525
vn 0.930299 0.255090 0.263576
vn 0.877216 0.477737 0.047525
vn 0.866929 0.205778 0.453971
vn 0.925612 -0.013941 -0.378216
vn 0.990434 0.082209 -0.110822
vn 0.981278 0.101184 0.163873
vn 0.917195 0.109041 0.383228
vn 0.962709 -0.059059 -0.264014
vn 0.994738 0.066512 -0.077927
vn 0.971669 0.115957 0.205946
vn 0.979620 -0.038462 -0.197142
vn 0.987892 0.142117 0.062229
vn 0.960445 0.180372 0.212161
vn 0.982204 -0.134011 -0.131593
vn 0.993620 0.112665 0.005059
vn 0.978377 -0.088538 -0.186923
vn 0.997585 -0.069340 -0.003890
vn 0.991020 0.053619 0.122496
vn 0.972011 0.206282 -0.112435
vn 0.982703 0.172758 0.066699
vn 0.585135 -0.810821 0.013650
vn 0.517248 -0.127490 -0.846286
vn 0.626148 -0.346292 -0.698585
vn 0.510842 -0.798031 -0.319669
vn 0.653274 -0.738708 0.165960
vn 0.702996 -0.306824 0.641604
vn 0.844797 0.020065 0.534710
vn 0.686316 0.238139 -0.687211
vn 0.760374 0.120536 -0.638203
vn 0.761049 0.266829 0.591276
vn 0.801324 0.317235 0.507190
vn 0.775559 0.406049 -0.483355
vn 0.825154 0.510194 -0.242534
vn 0.862800 0.467536 -0.192316
vn 0.833546 0.439393 0.334865
vn 0.865431 0.483452 0.131540
vn 0.769532 0.389506 0.506069
vn 0.847731 0.481204 -0.223146
vn 0.857669 0.468016 0.212991
vn 0.986002 -0.041259 -0.161546
vn 0.964067 -0.201107 0.173584
vn 0.960320 0.269835 -0.070527
vn 0.959009 0.202972 0.197749
f 1//1 2//2 3//3
f 1//1 4//4 5//5
f 3//3 4//4 1//1
f 5//5 6//6 7//7
f 4//4 6//6 5//5
f 6//6 8//8 7//7
f 9//9 2//2 1//1
f 10//10 2//2 9//9
f 5//5 11//11 1//1
f 11//11 9//9 1//1
f 7//7 12//12 5//5
f 12//12 11//11 5//5
f 13//13 7//7 8//8
f 12//12 7//7 13//13
f 14//14 10//10 9//9
f 15//15 10//10 14//14
f 11//11 16//16 9//9
f 16//16 14//14 9//9
f 17//17 12//12 18//18
f 17//17 16//16 12//12
f 16//16 11//11 12//12
f 13//13 18//18 12//12
f 19//19 15//15 14//14
f 20//20 15//15 19//19
f 21//21 16//16 22//22
f 21//21 19//19 16//16
f 19//19 14//14 16//16
f 17//17 22//22 16//16
f 23//23 24//24 25//25
f 20//20 23//23 25//25
f 20//20 19//19 23//23
f 19//19 26//26 23//23
f 27//27 19//19 21//21
f 26//26 19//19 27//27
f 28//28 24//24 23//23
f 29//29 24//24 28//28
f 26//26 30//30 23//23
f 30//30 28//28 23//23
f 31//31 26//26 27//27
f 30//30 26//26 31//31
f 32//32 29//29 28//28
f 33//33 29//29 32//32
f 30//30 34//34 28//28
f 34//34 32//32 28//28
f 35//35 30//30 31//31
f 34//34 30//30 35//35
f 36//36 33//33 32//32
f 37//37 33//33 36//36
f 34//34 38//38 32//32
f 38//38 36//36 32//32
f 39//39 34//34 35//35
f 38//38 34//34 39//39
f 40//40 37//37 36//36
f 41//41 37//37 40//40
f 42//42 38//38 43//43
f 42//42 40//40 38//38
f 40//40 36//36 38//38
f 39//39 43//43 38//38
f 44//44 41//41 40//40
f 45//45 41//41 44//44
f 46//46 40//40 42//42
f 44//44 40//40 46//46
f 44//44 47//47 45//45
f 46//46 47//47 44//44
f 48//48 49//49 50//50
f 48//48 51//51 52//52
f 50//50 51//51 48//48
f 52//52 53//53 54//54
f 51//51 53//53 52//52
f 53//53 55//55 54//54
f 56//56 57//57 58//58
f 49//49 56//56 58//58
f 48//48 56//56 49//49
f 48//48 2//2 56//56
f 48//48 3//3 2//2
f 4//4 3//3 48//48
f 52//52 4//4 48//48
f 6//6 4//4 52//52
f 54//54 6//6 52//52
f 8//8 59//59 60//60
f 6//6 59//59 8//8
f 6//6 55//55 59//59
f 6//6 54//54 55//55
f 59//59 61//61 60//60
f 62//62 57//57 56//56
f 63//63 57//57 62//62
f 2//2 10//10 62//62
f 56//56 2//2 62//62
f 60//60 64//64 13//13
f 8//8 60//60 13//13
f 65//65 60//60 61//61
f 64//64 60//60 65//65
f 66//66 63//63 62//62
f 67//67 63//63 66//66
f 10//10 15//15 66//66
f 62//62 10//10 66//66
f 18//18 68//68 17//17
f 18//18 69//69 68//68
f 13//13 69//69 18//18
f 13//13 70//70 69//69
f 13//13 64//64 70//70
f 65//65 70//70 64//64
f 71//71 67//67 66//66
f 72//72 67//67 71//71
f 15//15 20//20 71//71
f 66//66 15//15 71//71
f 22//22 73//73 21//21
f 22//22 17//17 68//68
f 22//22 68//68 73//73
f 73//73 68//68 74//74
f 75//75 68//68 69//69
f 74//74 68//68 75//75
f 25//25 72//72 71//71
f 25//25 24//24 72//72
f 24//24 76//76 72//72
f 20//20 25//25 71//71
f 73//73 77//77 27//27
f 21//21 73//73 27//27
f 74//74 78//78 73//73
f 78//78 77//77 73//73
f 79//79 74//74 75//75
f 78//78 74//74 79//79
f 80//80 81//81 82//82
f 80//80 82//82 76//76
f 80//80 76//76 29//29
f 29//29 76//76 24//24
f 77//77 83//83 31//31
f 27//27 77//77 31//31
f 78//78 84//84 77//77
f 84//84 83//83 77//77
f 85//85 78//78 79//79
f 84//84 78//78 85//85
f 86//86 81//81 80//80
f 87//87 81//81 86//86
f 29//29 33//33 86//86
f 80//80 29//29 86//86
f 83//83 88//88 35//35
f 31//31 83//83 35//35
f 84//84 89//89 83//83
f 89//89 88//88 83//83
f 90//90 84//84 85//85
f 89//89 84//84 90//90
f 91//91 87//87 86//86
f 92//92 87//87 91//91
f 33//33 37//37 91//91
f 86//86 33//33 91//91
f 88//88 93//93 39//39
f 35//35 88//88 39//39
f 89//89 94//94 88//88
f 94//94 93//93 88//88
f 95//95 89//89 90//90
f 94//94 89//89 95//95
f 96//96 92//92 91//91
f 97//97 92//92 96//96
f 37//37 41//41 96//96
f 91//91 37//37 96//96
f 43//43 98//98 42//42
f 43//43 39//39 93//93
f 43//43 93//93 98//98
f 98//98 93//93 99//99
f 100//100 94//94 101//101
f 100//100 99//99 94//94
f 99//99 93//93 94//94
f 95//95 101//101 94//94
f 102//102 97//97 96//96
f 103//103 97//97 102//102
f 41//41 45//45 102//102
f 96//96 41//41 102//102
f 98//98 104//104 46//46
f 42//42 98//98 46//46
f 99//99 105//105 98//98
f 105//105 104//104 98//98
f 106//106 99//99 100//100
f 105//105 99//99 106//106
f 107//107 103//103 102//102
f 108//108 103//103 107//107
f 45//45 47//47 109//109
f 45//45 109//109 102//102
f 102//102 109//109 107//107
f 47//47 46//46 104//104
f 47//47 104//104 109//109
f 109//109 104//104 110//110
f 111//111 105//105 112//112
f 111//111 110//110 105//105
f 110//110 104//104 105//105
f 106//106 112//112 105//105
f 107//107 113//113 108//108
f 113//113 114//114 115//115
f 113//113 107//107 114//114
f 107//107 109//109 114//114
f 110//110 116//116 109//109
f 116//116 114//114 109//109
f 117//117 110//110 111//111
f 116//116 110//110 117//117
f 114//114 118//118 115//115
f 116//116 118//118 114//114
f 119//119 118//118 116//116
f 117//117 119//119 116//116
f 120//120 121//121 122//122
f 122//122 123//123 120//120
f 124//124 121//121 120//120
f 125//125 121//121 124//124
f 126//126 120//120 123//123
f 124//124 120//120 126//126
f 124//124 127//127 125//125
f 126//126 127//127 124//124
f 50//50 128//128 129//129
f 49//49 128//128 50//50
f 51//51 50//50 130//130
f 50//50 129//129 130//130
f 53//53 51//51 131//131
f 51//51 130//130 131//131
f 55//55 132//132 133//133
f 55//55 53//53 132//132
f 53//53 131//131 132//132
f 132//132 134//134 133//133
f 58//58 135//135 136//136
f 57//57 135//135 58//58
f 128//128 49//49 58//58
f 136//136 128//128 58//58
f 55//55 133//133 59//59
f 133//133 61//61 59//59
f 133//133 134//134 61//61
f 134//134 137//137 61//61
f 57//57 63//63 135//135
f 135//135 63//63 138//138
f 61//61 137//137 65//65
f 137//137 139//139 65//65
f 63//63 67//67 138//138
f 138//138 67//67 140//140
f 70//70 141//141 69//69
f 70//70 142//142 141//141
f 70//70 65//65 142//142
f 65//65 139//139 142//142
f 67//67 72//72 140//140
f 140//140 72//72 143//143
f 141//141 144//144 75//75
f 69//69 141//141 75//75
f 145//145 141//141 142//142
f 144//144 141//141 145//145
f 146//146 147//147 148//148
f 146//146 148//148 143//143
f 146//146 143//143 76//76
f 76//76 143//143 72//72
f 144//144 149//149 79//79
f 75//75 144//144 79//79
f 150//150 144//144 145//145
f 149//149 144//144 150//150
f 82//82 147//147 146//146
f 82//82 81//81 147//147
f 81//81 151//151 147//147
f 76//76 82//82 146//146
f 149//149 152//152 85//85
f 79//79 149//149 85//85
f 153//153 149//149 150//150
f 152//152 149//149 153//153
f 81//81 87//87 151//151
f 151//151 87//87 154//154
f 152//152 155//155 90//90
f 85//85 152//152 90//90
f 156//156 152//152 153//153
f 155//155 152//152 156//156
f 157//157 158//158 159//159
f 157//157 159//159 154//154
f 157//157 154//154 92//92
f 92//92 154//154 87//87
f 155//155 160//160 95//95
f 90//90 155//155 95//95
f 161//161 155//155 156//156
f 160//160 155//155 161//161
f 162//162 158//158 157//157
f 163//163 158//158 162//162
f 92//92 97//97 162//162
f 157//157 92//92 162//162
f 101//101 164//164 100//100
f 101//101 95//95 160//160
f 101//101 160//160 164//164
f 164//164 160//160 165//165
f 166//166 160//160 161//161
f 165//165 160//160 166//166
f 167//167 163//163 162//162
f 168//168 163//163 167//167
f 97//97 103//103 167//167
f 162//162 97//97 167//167
f 164//164 169//169 106//106
f 100//100 164//164 106//106
f 165//165 170//170 164//164
f 170//170 169//169 164//164
f 171//171 165//165 166//166
f 170//170 165//165 171//171
f 167//167 172//172 168//168
f 172//172 167//167 103//103
f 172//172 103//103 173//173
f 173//173 103//103 108//108
f 112//112 174//174 111//111
f 112//112 106//106 169//169
f 112//112 169//169 174//174
f 174//174 169//169 175//175
f 176//176 170//170 177//177
f 176//176 175//175 170//170
f 175//175 169//169 170//170
f 171//171 177//177 170//170
f 178//178 108//108 113//113
f 178//178 179//179 108//108
f 179//179 173//173 108//108
f 113//113 115//115 178//178
f 174//174 180//180 117//117
f 111//111 174//174 117//117
f 175//175 181//181 174//174
f 181//181 180//180 174//174
f 182//182 175//175 176//176
f 181//181 175//175 182//182
f 178//178 183//183 179//179
f 184//184 185//185 183//183
f 118//118 184//184 183//183
f 118//118 183//183 178//178
f 118//118 178//178 115//115
f 118//118 119//119 186//186
f 184//184 118//118 186//186
f 119//119 117//117 180//180
f 119//119 180//180 186//186
f 186//186 180//180 187//187
f 188//188 181//181 189//189
f 188//188 187//187 181//181
f 187//187 180//180 181//181
f 182//182 189//189 181//181
f 184//184 190//190 185//185
f 190//190 191//191 192//192
f 190//190 184//184 191//191
f 184//184 186//186 191//191
f 193//193 187//187 194//194
f 193//193 191//191 187//187
f 191//191 186//186 187//187
f 188//188 194//194 187//187
f 191//191 195//195 192//192
f 193//193 195//195 191//191
f 122//122 196//196 197//197
f 121//121 196//196 122//122
f 123//123 198//198 199//199
f 123//123 122//122 198//198
f 122//122 197//197 198//198
f 198//198 200//200 199//199
f 201//201 202//202 203//203
f 201//201 203//203 196//196
f 201//201 196//196 125//125
f 125//125 196//196 121//121
f 199//199 204//204 126//126
f 123//123 199//199 126//126
f 205//205 199//199 200//200
f 204//204 199//199 205//205
f 201//201 206//206 202//202
f 207//207 208//208 206//206
f 127//127 207//207 206//206
f 127//127 206//206 201//201
f 127//127 201//201 125//125
f 127//127 209//209 207//207
f 126//126 209//209 127//127
f 126//126 210//210 209//209
f 126//126 204//204 210//210
f 205//205 210//210 204//204
f 207//207 211//211 208//208
f 209//209 211//211 207//207
f 212//212 213//213 214//214
f 212//212 129//129 128//128
f 212//212 214//214 129//129
f 214//214 215//215 129//129
f 130//130 129//129 216//216
f 129//129 215//215 216//216
f 131//131 130//130 217//217
f 130//130 216//216 217//217
f 132//132 131//131 218//218
f 131//131 217//217 218//218
f 218//218 134//134 132//132
f 219//219 134//134 218//218
f 136//136 213//213 212//212
f 136//136 135//135 213//213
f 135//135 220//220 213//213
f 128//128 136//136 212//212
f 221//221 222//222 137//137
f 221//221 137//137 219//219
f 219//219 137//137 134//134
f 221//221 223//223 222//222
f 135//135 138//138 220//220
f 220//220 138//138 224//224
f 222//222 225//225 139//139
f 137//137 222//222 139//139
f 226//226 222//222 223//223
f 225//225 222//222 226//226
f 138//138 140//140 224//224
f 224//224 140//140 227//227
f 225//225 228//228 142//142
f 139//139 225//225 142//142
f 229//229 225//225 226//226
f 228//228 225//225 229//229
f 140//140 143//143 227//227
f 227//227 143//143 230//230
f 228//228 231//231 232//232
f 228//228 232//232 142//142
f 142//142 232//232 145//145
f 229//229 231//231 228//228
f 148//148 233//233 234//234
f 147//147 233//233 148//148
f 230//230 143//143 148//148
f 234//234 230//230 148//148
f 235//235 236//236 150//150
f 235//235 150//150 232//232
f 232//232 150//150 145//145
f 235//235 237//237 236//236
f 147//147 151//151 233//233
f 233//233 151//151 238//238
f 236//236 239//239 153//153
f 150//150 236//236 153//153
f 240//240 236//236 237//237
f 239//239 236//236 240//240
f 241//241 242//242 243//243
f 241//241 243//243 238//238
f 241//241 238//238 154//154
f 154//154 238//238 151//151
f 239//239 244//244 156//156
f 153//153 239//239 156//156
f 245//245 239//239 240//240
f 244//244 239//239 245//245
f 159//159 242//242 241//241
f 159//159 158//158 242//242
f 158//158 246//246 242//242
f 154//154 159//159 241//241
f 244//244 247//247 161//161
f 156//156 244//244 161//161
f 248//248 244//244 245//245
f 247//247 244//244 248//248
f 158//158 163//163 246//246
f 246//246 163//163 249//249
f 247//247 250//250 166//166
f 161//161 247//247 166//166
f 251//251 247//247 248//248
f 250//250 247//247 251//251
f 163//163 168//168 249//249
f 249//249 168//168 252//252
f 250//250 253//253 171//171
f 166//166 250//250 171//171
f 254//254 250//250 251//251
f 253//253 250//250 254//254
f 255//255 168//168 172//172
f 255//255 256//256 168//168
f 256//256 252//252 168//168
f 172//172 173//173 255//255
f 177//177 257//257 176//176
f 177//177 258//258 257//257
f 171//171 258//258 177//177
f 171//171 259//259 258//258
f 171//171 253//253 259//259
f 254//254 259//259 253//253
f 255//255 260//260 256//256
f 260//260 255//255 173//173
f 260//260 173//173 261//261
f 261//261 173//173 179//179
f 257//257 262//262 182//182
f 176//176 257//257 182//182
f 263//263 257//257 258//258
f 262//262 257//257 263//263
f 179//179 264//264 261//261
f 183//183 264//264 179//179
f 264//264 183//183 185//185
f 265//265 264//264 185//185
f 189//189 266//266 188//188
f 189//189 267//267 266//266
f 182//182 267//267 189//189
f 182//182 268//268 267//267
f 182//182 262//262 268//268
f 263//263 268//268 262//262
f 269//269 185//185 190//190
f 269//269 270//270 185//185
f 270//270 265//265 185//185
f 190//190 192//192 269//269
f 194//194 271//271 193//193
f 194//194 188//188 266//266
f 194//194 266//266 271//271
f 271//271 266//266 272//272
f 273//273 266//266 267//267
f 272//272 266//266 273//273
f 269//269 274//274 270//270
f 275//275 276//276 274//274
f 195//195 275//275 274//274
f 195//195 274//274 269//269
f 195//195 269//269 192//192
f 195//195 193//193 271//271
f 195//195 271//271 275//275
f 275//275 271//271 277//277
f 272//272 278//278 271//271
f 278//278 277//277 271//271
f 279//279 272//272 273//273
f 278//278 272//272 279//279
f 280//280 276//276 275//275
f 281//281 276//276 280//280
f 277//277 282//282 275//275
f 282//282 280//280 275//275
f 283//283 278//278 284//284
f 283//283 282//282 278//278
f 282//282 277//277 278//278
f 279//279 284//284 278//278
f 280//280 285//285 281//281
f 282//282 285//285 280//280
f 286//286 285//285 282//282
f 283//283 286//286 282//282
f 287//287 288//288 289//289
f 287//287 290//290 291//291
f 289//289 290//290 287//287
f 290//290 292//292 291//291
f 197//197 288//288 287//287
f 197//197 196//196 288//288
f 196//196 293//293 288//288
f 198//198 197//197 287//287
f 291//291 198//198 287//287
f 200//200 294//294 295//295
f 198//198 294//294 200//200
f 198//198 292//292 294//294
f 198//198 291//291 292//292
f 294//294 296//296 295//295
f 203//203 297//297 298//298
f 202//202 297//297 203//203
f 293//293 196//196 203//203
f 298//298 293//293 203//203
f 295//295 299//299 300//300
f 295//295 300//300 200//200
f 200//200 300//300 205//205
f 296//296 299//299 295//295
f 202//202 301//301 297//297
f 206//206 301//301 202//202
f 301//301 206//206 208//208
f 302//302 301//301 208//208
f 210//210 303//303 304//304
f 209//209 210//210 304//304
f 300//300 210//210 205//205
f 303//303 210//210 300//300
f 208//208 305//305 302//302
f 211//211 305//305 208//208
f 304//304 211//211 209//209
f 305//305 211//211 304//304
f 306//306 307//307 308//308
f 308//308 309//309 306//306
f 214//214 310//310 311//311
f 213//213 310//310 214//214
f 215//215 214//214 312//312
f 214//214 311//311 312//312
f 216//216 215//215 313//313
f 215//215 312//312 313//313
f 307//307 306//306 217//217
f 307//307 217//217 313//313
f 313//313 217//217 216//216
f 306//306 309//309 314//314
f 306//306 314//314 217//217
f 217//217 314//314 218//218
f 219//219 315//315 316//316
f 219//219 218//218 315//315
f 218//218 314//314 315//315
f 315//315 317//317 316//316
f 213//213 220//220 310//310
f 310//310 220//220 318//318
f 219//219 316//316 221//221
f 316//316 223//223 221//221
f 316//316 317//317 223//223
f 317//317 319//319 223//223
f 220//220 224//224 318//318
f 318//318 224//224 320//320
f 223//223 319//319 226//226
f 319//319 321//321 226//226
f 224//224 227//227 320//320
f 320//320 227//227 322//322
f 226//226 321//321 229//229
f 321//321 323//323 229//229
f 227//227 230//230 322//322
f 322//322 230//230 324//324
f 231//231 325//325 232//232
f 231//231 326//326 325//325
f 231//231 229//229 326//326
f 229//229 323//323 326//326
f 234//234 327//327 328//328
f 233//233 327//327 234//234
f 324//324 230//230 234//234
f 328//328 324//324 234//234
f 232//232 325//325 235//235
f 325//325 237//237 235//235
f 325//325 326//326 237//237
f 326//326 329//329 237//237
f 233//233 238//238 327//327
f 327//327 238//238 330//330
f 237//237 329//329 240//240
f 329//329 331//331 240//240
f 243//243 332//332 333//333
f 242//242 332//332 243//243
f 330//330 238//238 243//243
f 333//333 330//330 243//243
f 240//240 331//331 245//245
f 331//331 334//334 245//245
f 242//242 246//246 332//332
f 332//332 246//246 335//335
f 245//245 334//334 248//248
f 334//334 336//336 248//248
f 246//246 249//249 335//335
f 335//335 249//249 337//337
f 248//248 336//336 251//251
f 336//336 338//338 251//251
f 249//249 252//252 337//337
f 337//337 252//252 339//339
f 251//251 338//338 254//254
f 338//338 340//340 254//254
f 252//252 256//256 339//339
f 339//339 256//256 341//341
f 259//259 342//342 258//258
f 259//259 343//343 342//342
f 259//259 254//254 343//343
f 254//254 340//340 343//343
f 344//344 256//256 260//260
f 344//344 345//345 256//256
f 345//345 341//341 256//256
f 260//260 261//261 344//344
f 342//342 346//346 263//263
f 258//258 342//342 263//263
f 347//347 342//342 343//343
f 346//346 342//342 347//347
f 344//344 348//348 345//345
f 349//349 350//350 348//348
f 264//264 349//349 348//348
f 264//264 348//348 344//344
f 264//264 344//344 261//261
f 264//264 265//265 349//349
f 268//268 351//351 267//267
f 268//268 352//352 351//351
f 263//263 352//352 268//268
f 263//263 353//353 352//352
f 263//263 346//346 353//353
f 347//347 353//353 346//346
f 349//349 354//354 350//350
f 354//354 349//349 265//265
f 354//354 265//265 355//355
f 355//355 265//265 270//270
f 351//351 356//356 273//273
f 267//267 351//351 273//273
f 357//357 351//351 352//352
f 356//356 351//351 357//357
f 358//358 270//270 274//274
f 358//358 359//359 270//270
f 359//359 355//355 270//270
f 274//274 276//276 358//358
f 356//356 360//360 279//279
f 273//273 356//356 279//279
f 361//361 356//356 357//357
f 360//360 356//356 361//361
f 358//358 362//362 359//359
f 362//362 358//358 276//276
f 362//362 276//276 363//363
f 363//363 276//276 281//281
f 284//284 364//364 283//283
f 284//284 279//279 360//360
f 284//284 360//360 364//364
f 364//364 360//360 365//365
f 366//366 360//360 361//361
f 365//365 360//360 366//366
f 367//367 281//281 285//285
f 367//367 368//368 281//281
f 368//368 363//363 281//281
f 285//285 286//286 369//369
f 367//367 285//285 369//369
f 286//286 283//283 364//364
f 286//286 364//364 369//369
f 369//369 364//364 370//370
f 371//371 365//365 372//372
f 371//371 370//370 365//365
f 370//370 364//364 365//365
f 366//366 372//372 365//365
f 373//373 368//368 367//367
f 374//374 368//368 373//373
f 369//369 375//375 367//367
f 375//375 373//373 367//367
f 370//370 376//376 369//369
f 376//376 375//375 369//369
f 377//377 370//370 371//371
f 376//376 370//370 377//377
f 378//378 374//374 373//373
f 379//379 374//374 378//378
f 375//375 380//380 373//373
f 380//380 378//378 373//373
f 376//376 381//381 375//375
f 381//381 380//380 375//375
f 382//382 376//376 377//377
f 381//381 376//376 382//382
f 289//289 379//379 378//378
f 289//289 288//288 379//379
f 288//288 383//383 379//379
f 290//290 289//289 378//378
f 380//380 290//290 378//378
f 292//292 290//290 380//380
f 292//292 380//380 384//384
f 384//384 380//380 381//381
f 385//385 381//381 382//382
f 384//384 381//381 385//385
f 386//386 387//387 388//388
f 386//386 388//388 383//383
f 386//386 383//383 293//293
f 293//293 383//383 288//288
f 292//292 384//384 294//294
f 384//384 296//296 294//294
f 384//384 385//385 296//296
f 385//385 389//389 296//296
f 298//298 387//387 386//386
f 298//298 297//297 387//387
f 297//297 390//390 387//387
f 293//293 298//298 386//386
f 299//299 391//391 392//392
f 300//300 299//299 392//392
f 389//389 299//299 296//296
f 391//391 299//299 389//389
f 297//297 393//393 390//390
f 301//301 393//393 297//297
f 393//393 301//301 302//302
f 394//394 393//393 302//302
f 303//303 395//395 396//396
f 304//304 303//303 396//396
f 392//392 303//303 300//300
f 395//395 303//303 392//392
f 302//302 397//397 394//394
f 305//305 397//397 302//302
f 396//396 305//305 304//304
f 397//397 305//305 396//396
f 398//398 399//399 400//400
f 398//398 308//308 307//307
f 398//398 400//400 308//308
f 400//400 401//401 308//308
f 309//309 402//402 403//403
f 309//309 308//308 402//402
f 308//308 401//401 402//402
f 402//402 404//404 403//403
f 311//311 405//405 406//406
f 310//310 405//405 311//311
f 312//312 311//311 407//407
f 311//311 406//406 407//407
f 399//399 398//398 313//313
f 399//399 313//313 407//407
f 407//407 313//313 312//312
f 307//307 313//313 398//398
f 309//309 403//403 314//314
f 403//403 404//404 408//408
f 403//403 408//408 314//314
f 314//314 408//408 315//315
f 408//408 317//317 315//315
f 409//409 317//317 408//408
f 310//310 318//318 405//405
f 405//405 318//318 410//410
f 317//317 409//409 319//319
f 409//409 411//411 319//319
f 318//318 320//320 410//410
f 410//410 320//320 412//412
f 319//319 411//411 321//321
f 411//411 413//413 321//321
f 320//320 322//322 412//412
f 412//412 322//322 414//414
f 321//321 413//413 323//323
f 413//413 415//415 323//323
f 322//322 324//324 414//414
f 414//414 324//324 416//416
f 323//323 415//415 326//326
f 415//415 417//417 326//326
f 328//328 418//418 419//419
f 327//327 418//418 328//328
f 416//416 324//324 328//328
f 419//419 416//416 328//328
f 326//326 417//417 329//329
f 417//417 420//420 329//329
f 327//327 330//330 418//418
f 418//418 330//330 421//421
f 329//329 420//420 331//331
f 420//420 422//422 331//331
f 333//333 423//423 424//424
f 332//332 423//423 333//333
f 421//421 330//330 333//333
f 424//424 421//421 333//333
f 331//331 422//422 334//334
f 422//422 425//425 334//334
f 332//332 335//335 423//423
f 423//423 335//335 426//426
f 334//334 425//425 336//336
f 425//425 427//427 336//336
f 335//335 337//337 426//426
f 426//426 337//337 428//428
f 336//336 427//427 338//338
f 427//427 429//429 338//338
f 430//430 431//431 432//432
f 430//430 432//432 428//428
f 430//430 428//428 339//339
f 339//339 428//428 337//337
f 338//338 429//429 340//340
f 429//429 433//433 340//340
f 430//430 434//434 431//431
f 434//434 430//430 339//339
f 434//434 339//339 435//435
f 435//435 339//339 341//341
f 340//340 433//433 343//343
f 433//433 436//436 343//343
f 341//341 345//345 435//435
f 435//435 345//345 437//437
f 343//343 436//436 347//347
f 436//436 438//438 347//347
f 345//345 439//439 437//437
f 348//348 439//439 345//345
f 439//439 348//348 350//350
f 440//440 439//439 350//350
f 353//353 441//441 442//442
f 352//352 353//353 442//442
f 438//438 353//353 347//347
f 441//441 353//353 438//438
f 350//350 443//443 440//440
f 354//354 443//443 350//350
f 443//443 354//354 355//355
f 444//444 443//443 355//355
f 352//352 442//442 357//357
f 442//442 445//445 357//357
f 355//355 359//359 444//444
f 444//444 359//359 446//446
f 357//357 445//445 361//361
f 445//445 447//447 361//361
f 359//359 448//448 446//446
f 362//362 448//448 359//359
f 448//448 362//362 363//363
f 449//449 448//448 363//363
f 361//361 447//447 366//366
f 447//447 450//450 366//366
f 363//363 368//368 449//449
f 449//449 368//368 451//451
f 372//372 452//452 453//453
f 371//371 372//372 453//453
f 450//450 372//372 366//366
f 452//452 372//372 450//450
f 368//368 374//374 451//451
f 451//451 374//374 454//454
f 371//371 453//453 377//377
f 453//453 455//455 377//377
f 374//374 379//379 454//454
f 454//454 379//379 456//456
f 377//377 455//455 382//382
f 455//455 457//457 382//382
f 379//379 383//383 456//456
f 456//456 383//383 458//458
f 382//382 457//457 385//385
f 457//457 459//459 385//385
f 388//388 460//460 461//461
f 387//387 460//460 388//388
f 458//458 383//383 388//388
f 461//461 458//458 388//388
f 385//385 459//459 389//389
f 459//459 462//462 389//389
f 387//387 390//390 460//460
f 460//460 390//390 463//463
f 391//391 464//464 465//465
f 392//392 391//391 465//465
f 462//462 391//391 389//389
f 464//464 391//391 462//462
f 390//390 466//466 463//463
f 393//393 466//466 390//390
f 466//466 393//393 394//394
f 467//467 466//466 394//394
f 395//395 468//468 469//469
f 396//396 395//395 469//469
f 465//465 395//395 392//392
f 468//468 395//395 465//465
f 394//394 470//470 467//467
f 397//397 470//470 394//394
f 469//469 397//397 396//396
f 470//470 397//397 469//469
f 400//400 471//471 472//472
f 399//399 471//471 400//400
f 401//401 400//400 473//473
f 400//400 472//472 473//473
f 402//402 401//401 474//474
f 401//401 473//473 474//474
f 474//474 404//404 402//402
f 475//475 404//404 474//474
f 406//406 476//476 477//477
f 405//405 476//476 406//406
f 407//407 406//406 478//478
f 406//406 477//477 478//478
f 471//471 399//399 407//407
f 478//478 471//471 407//407
f 404//404 475//475 479//479
f 408//408 404//404 479//479
f 479//479 409//409 408//408
f 480//480 409//409 479//479
f 405//405 410//410 476//476
f 476//476 410//410 481//481
f 409//409 480//480 411//411
f 480//480 482//482 411//411
f 410//410 412//412 481//481
f 481//481 412//412 483//483
f 411//411 482//482 413//413
f 482//482 484//484 413//413
f 412//412 414//414 483//483
f 483//483 414//414 485//485
f 413//413 484//484 415//415
f 484//484 486//486 415//415
f 414//414 416//416 485//485
f 485//485 416//416 487//487
f 415//415 486//486 417//417
f 486//486 488//488 417//417
f 419//419 489//489 490//490
f 418//418 489//489 419//419
f 487//487 416//416 419//419
f 490//490 487//487 419//419
f 417//417 488//488 420//420
f 488//488 491//491 420//420
f 418//418 421//421 489//489
f 489//489 421//421 492//492
f 420//420 491//491 422//422
f 491//491 493//493 422//422
f 424//424 494//494 495//495
f 423//423 494//494 424//424
f 492//492 421//421 424//424
f 495//495 492//492 424//424
f 422//422 493//493 425//425
f 493//493 496//496 425//425
f 423//423 426//426 494//494
f 494//494 426//426 497//497
f 425//425 496//496 427//427
f 496//496 498//498 427//427
f 426//426 428//428 497//497
f 497//497 428//428 499//499
f 427//427 498//498 429//429
f 498//498 500//500 429//429
f 432//432 501//501 502//502
f 431//431 501//501 432//432
f 499//499 428//428 432//432
f 502//502 499//499 432//432
f 429//429 500//500 433//433
f 500//500 503//503 433//433
f 431//431 504//504 501//501
f 434//434 504//504 431//431
f 504//504 434//434 435//435
f 505//505 504//504 435//435
f 506//506 507//507 508//508
f 506//506 503//503 507//507
f 506//506 436//436 503//503
f 436//436 433//433 503//503
f 435//435 437//437 505//505
f 505//505 437//437 509//509
f 510//510 506//506 508//508
f 511//511 510//510 508//508
f 436//436 510//510 438//438
f 506//506 510//510 436//436
f 437//437 512//512 509//509
f 439//439 512//512 437//437
f 512//512 439//439 440//440
f 513//513 512//512 440//440
f 514//514 515//515 516//516
f 511//511 515//515 514//514
f 510//510 511//511 514//514
f 510//510 514//514 442//442
f 510//510 442//442 441//441
f 438//438 510//510 441//441
f 440//440 517//517 513//513
f 443//443 517//517 440//440
f 517//517 443//443 444//444
f 518//518 517//517 444//444
f 519//519 514//514 516//516
f 520//520 519//519 516//516
f 442//442 519//519 445//445
f 514//514 519//519 442//442
f 444//444 446//446 518//518
f 518//518 446//446 521//521
f 522//522 523//523 524//524
f 520//520 523//523 522//522
f 520//520 522//522 519//519
f 519//519 522//522 525//525
f 445//445 525//525 447//447
f 519//519 525//525 445//445
f 446//446 526//526 521//521
f 448//448 526//526 446//446
f 526//526 448//448 449//449
f 527//527 526//526 449//449
f 522//522 524//524 528//528
f 528//528 529//529 530//530
f 528//528 530//530 522//522
f 522//522 530//530 525//525
f 447//447 530//530 450//450
f 525//525 530//530 447//447
f 449//449 451//451 527//527
f 527//527 451//451 531//531
f 452//452 530//530 529//529
f 452//452 529//529 453//453
f 453//453 529//529 532//532
f 450//450 530//530 452//452
f 451//451 454//454 531//531
f 531//531 454//454 533//533
f 453//453 532//532 455//455
f 532//532 534//534 455//455
f 454//454 456//456 533//533
f 533//533 456//456 535//535
f 455//455 534//534 457//457
f 534//534 536//536 457//457
f 456//456 458//458 535//535
f 535//535 458//458 537//537
f 457//457 536//536 459//459
f 536//536 538//538 459//459
f 461//461 539//539 540//540
f 460//460 539//539 461//461
f 537//537 458//458 461//461
f 540//540 537//537 461//461
f 459//459 538//538 462//462
f 538//538 541//541 462//462
f 542//542 463//463 543//543
f 542//542 539//539 463//463
f 539//539 460//460 463//463
f 542//542 543//543 544//544
f 464//464 545//545 546//546
f 465//465 464//464 546//546
f 541//541 464//464 462//462
f 545//545 464//464 541//541
f 463//463 466//466 543//543
f 467//467 547//547 548//548
f 466//466 467//467 548//548
f 466//466 548//548 544//544
f 466//466 544//544 543//543
f 547//547 469//469 468//468
f 547//547 468//468 548//548
f 548//548 468//468 549//549
f 546//546 468//468 465//465
f 549//549 468//468 546//546
f 467//467 470//470 547//547
f 469//469 547//547 470//470
f 472//472 550//550 551//551
f 471//471 550//550 472//472
f 473//473 472//472 552//552
f 472//472 551//551 552//552
f 553//553 552//552 554//554
f 553//553 474//474 552//552
f 474//474 473//473 552//552
f 474//474 553//553 475//475
f 477//477 555//555 556//556
f 476//476 555//555 477//477
f 478//478 477//477 557//557
f 477//477 556//556 557//557
f 550//550 471//471 478//478
f 557//557 550//550 478//478
f 553//553 554//554 558//558
f 559//559 558//558 560//560
f 479//479 558//558 559//559
f 479//479 553//553 558//558
f 479//479 475//475 553//553
f 479//479 559//559 480//480
f 476//476 481//481 555//555
f 555//555 481//481 561//561
f 559//559 560//560 562//562
f 562//562 480//480 559//559
f 562//562 563//563 480//480
f 563//563 482//482 480//480
f 481//481 483//483 561//561
f 561//561 483//483 564//564
f 565//565 566//566 567//567
f 565//565 563//563 566//566
f 565//565 484//484 563//563
f 484//484 482//482 563//563
f 483//483 485//485 564//564
f 564//564 485//485 568//568
f 569//569 565//565 567//567
f 570//570 569//569 567//567
f 484//484 569//569 486//486
f 565//565 569//569 484//484
f 485//485 487//487 568//568
f 568//568 487//487 571//571
f 572//572 569//569 570//570
f 573//573 572//572 570//570
f 486//486 572//572 488//488
f 569//569 572//572 486//486
f 490//490 489//489 574//574
f 490//490 574//574 575//575
f 490//490 575//575 487//487
f 487//487 575//575 571//571
f 576//576 572//572 573//573
f 577//577 576//576 573//573
f 488//488 576//576 491//491
f 572//572 576//576 488//488
f 574//574 578//578 579//579
f 574//574 489//489 578//578
f 489//489 492//492 578//578
f 575//575 574//574 579//579
f 580//580 576//576 577//577
f 581//581 580//580 577//577
f 491//491 580//580 493//493
f 576//576 580//580 491//491
f 495//495 494//494 582//582
f 495//495 582//582 583//583
f 495//495 583//583 492//492
f 492//492 583//583 578//578
f 584//584 580//580 581//581
f 585//585 584//584 581//581
f 493//493 584//584 496//496
f 580//580 584//584 493//493
f 582//582 586//586 587//587
f 582//582 494//494 586//586
f 494//494 497//497 586//586
f 583//583 582//582 587//587
f 588//588 584//584 585//585
f 589//589 588//588 585//585
f 496//496 588//588 498//498
f 584//584 588//588 496//496
f 497//497 499//499 586//586
f 586//586 499//499 590//590
f 591//591 592//592 593//593
f 589//589 592//592 591//591
f 589//589 591//591 588//588
f 588//588 591//591 594//594
f 498//498 594//594 500//500
f 588//588 594//594 498//498
f 502//502 501//501 595//595
f 502//502 595//595 596//596
f 502//502 596//596 499//499
f 499//499 596//596 590//590
f 597//597 591//591 593//593
f 598//598 597//597 593//593
f 594//594 591//591 599//599
f 599//599 591//591 597//597
f 500//500 599//599 503//503
f 594//594 599//599 500//500
f 501//501 504//504 595//595
f 595//595 504//504 505//505
f 595//595 505//505 596//596
f 596//596 505//505 600//600
f 601//601 602//602 603//603
f 598//598 602//602 601//601
f 598//598 601//601 597//597
f 597//597 601//601 604//604
f 507//507 604//604 508//508
f 507//507 599//599 604//604
f 599//599 597//597 604//604
f 503//503 599//599 507//507
f 605//605 509//509 606//606
f 605//605 600//600 509//509
f 600//600 505//505 509//509
f 605//605 606//606 607//607
f 608//608 609//609 610//610
f 608//608 611//611 612//612
f 609//609 608//608 612//612
f 603//603 612//612 611//611
f 603//603 611//611 601//601
f 601//601 611//611 613//613
f 604//604 601//601 614//614
f 614//614 601//601 613//613
f 508//508 614//614 511//511
f 604//604 614//614 508//508
f 509//509 512//512 606//606
f 513//513 615//615 616//616
f 512//512 513//513 616//616
f 512//512 616//616 607//607
f 512//512 607//607 606//606
f 615//615 617//617 618//618
f 616//616 615//615 618//618
f 610//610 618//618 617//617
f 610//610 617//617 608//608
f 608//608 617//617 619//619
f 611//611 608//608 620//620
f 620//620 608//608 619//619
f 613//613 611//611 621//621
f 621//621 611//611 620//620
f 515//515 621//621 516//516
f 515//515 614//614 621//621
f 614//614 613//613 621//621
f 511//511 614//614 515//515
f 513//513 517//517 615//615
f 518//518 615//615 517//517
f 518//518 622//622 615//615
f 622//622 617//617 615//615
f 619//619 617//617 623//623
f 623//623 617//617 622//622
f 620//620 619//619 624//624
f 624//624 619//619 623//623
f 621//621 620//620 625//625
f 625//625 620//620 624//624
f 516//516 625//625 520//520
f 621//621 625//625 516//516
f 622//622 521//521 626//626
f 518//518 521//521 622//622
f 623//623 622//622 627//627
f 627//627 622//622 626//626
f 624//624 623//623 628//628
f 628//628 623//623 627//627
f 523//523 628//628 524//524
f 523//523 625//625 628//628
f 625//625 624//624 628//628
f 520//520 625//625 523//523
f 521//521 526//526 626//626
f 527//527 626//626 526//526
f 527//527 629//629 626//626
f 629//629 627//627 626//626
f 628//628 627//627 630//630
f 630//630 627//627 629//629
f 524//524 631//631 528//528
f 524//524 628//628 631//631
f 628//628 630//630 631//631
f 528//528 631//631 529//529
f 629//629 531//531 632//632
f 527//527 531//531 629//629
f 630//630 629//629 633//633
f 633//633 629//629 632//632
f 631//631 630//630 634//634
f 634//634 630//630 633//633
f 529//529 634//634 532//532
f 631//631 634//634 529//529
f 632//632 635//635 636//636
f 632//632 531//531 635//635
f 531//531 533//533 635//635
f 636//636 637//637 638//638
f 636//636 638//638 632//632
f 632//632 638//638 633//633
f 634//634 633//633 639//639
f 639//639 633//633 638//638
f 532//532 639//639 534//534
f 634//634 639//639 532//532
f 533//533 535//535 635//635
f 635//635 535//535 640//640
f 638//638 637//637 641//641
f 641//641 642//642 643//643
f 641//641 643//643 638//638
f 638//638 643//643 639//639
f 534//534 643//643 536//536
f 639//639 643//643 534//534
f 535//535 537//537 640//640
f 640//640 537//537 644//644
f 645//645 643//643 642//642
f 646//646 645//645 642//642
f 536//536 645//645 538//538
f 643//643 645//645 536//536
f 540//540 539//539 647//647
f 540//540 647//647 648//648
f 540//540 648//648 537//537
f 537//537 648//648 644//644
f 645//645 646//646 649//649
f 649//649 538//538 645//645
f 649//649 650//650 538//538
f 650//650 541//541 538//538
f 539//539 542//542 647//647
f 647//647 542//542 544//544
f 647//647 544//544 648//648
f 648//648 544//544 651//651
f 545//545 652//652 653//653
f 546//546 545//545 653//653
f 650//650 545//545 541//541
f 652//652 545//545 650//650
f 544//544 654//654 651//651
f 548//548 654//654 544//544
f 549//549 655//655 548//548
f 548//548 655//655 654//654
f 653//653 549//549 546//546
f 655//655 549//549 653//653
f 551//551 656//656 657//657
f 550//550 656//656 551//551
f 552//552 551//551 658//658
f 551//551 657//657 658//658
f 658//658 554//554 552//552
f 659//659 554//554 658//658
f 556//556 660//660 661//661
f 555//555 660//660 556//556
f 557//557 556//556 662//662
f 556//556 661//661 662//662
f 656//656 550//550 557//557
f 662//662 656//656 557//557
f 554//554 659//659 663//663
f 558//558 554//554 663//663
f 663//663 560//560 558//558
f 664//664 560//560 663//663
f 555//555 561//561 660//660
f 660//660 561//561 665//665
f 666//666 562//562 560//560
f 666//666 560//560 667//667
f 667//667 560//560 664//664
f 562//562 666//666 563//563
f 561//561 564//564 665//665
f 665//665 564//564 668//668
f 566//566 666//666 667//667
f 566//566 667//667 567//567
f 567//567 667//667 669//669
f 563//563 666//666 566//566
f 564//564 568//568 668//668
f 668//668 568//568 670//670
f 671//671 672//672 673//673
f 671//671 669//669 672//672
f 671//671 570//570 669//669
f 570//570 567//567 669//669
f 674//674 571//571 675//675
f 674//674 670//670 571//571
f 670//670 568//568 571//571
f 674//674 675//675 676//676
f 677//677 671//671 673//673
f 678//678 677//677 673//673
f 570//570 677//677 573//573
f 671//671 677//677 570//570
f 675//675 679//679 680//680
f 675//675 571//571 679//679
f 571//571 575//575 679//679
f 676//676 675//675 680//680
f 681//681 677//677 678//678
f 682//682 681//681 678//678
f 573//573 681//681 577//577
f 677//677 681//681 573//573
f 579//579 578//578 683//683
f 579//579 683//683 684//684
f 579//579 684//684 575//575
f 575//575 684//684 679//679
f 685//685 686//686 687//687
f 682//682 686//686 685//685
f 682//682 685//685 681//681
f 681//681 685//685 688//688
f 577//577 688//688 581//581
f 681//681 688//688 577//577
f 683//683 583//583 689//689
f 578//578 583//583 683//683
f 690//690 684//684 683//683
f 689//689 690//690 683//683
f 691//691 685//685 687//687
f 692//692 691//691 687//687
f 688//688 685//685 693//693
f 693//693 685//685 691//691
f 581//581 693//693 585//585
f 688//688 693//693 581//581
f 587//587 586//586 694//694
f 587//587 694//694 695//695
f 583//583 587//587 695//695
f 583//583 695//695 696//696
f 583//583 696//696 689//689
f 690//690 689//689 696//696
f 697//697 698//698 699//699
f 697//697 700//700 701//701
f 698//698 697//697 701//701
f 692//692 701//701 700//700
f 692//692 700//700 691//691
f 691//691 700//700 702//702
f 693//693 691//691 703//703
f 703//703 691//691 702//702
f 585//585 703//703 589//589
f 693//693 703//703 585//585
f 694//694 704//704 705//705
f 694//694 586//586 704//704
f 586//586 590//590 704//704
f 695//695 694//694 705//705
f 706//706 697//697 699//699
f 707//707 706//706 699//699
f 700//700 697//697 708//708
f 708//708 697//697 706//706
f 702//702 700//700 709//709
f 709//709 700//700 708//708
f 592//592 709//709 593//593
f 592//592 703//703 709//709
f 703//703 702//702 709//709
f 589//589 703//703 592//592
f 590//590 596//596 704//704
f 704//704 596//596 710//710
f 711//711 712//712 713//713
f 707//707 712//712 711//711
f 707//707 711//711 706//706
f 706//706 711//711 714//714
f 708//708 706//706 715//715
f 715//715 706//706 714//714
f 709//709 708//708 716//716
f 716//716 708//708 715//715
f 593//593 716//716 598//598
f 709//709 716//716 593//593
f 717//717 600//600 718//718
f 717//717 710//710 600//600
f 710//710 596//596 600//600
f 718//718 719//719 720//720
f 717//717 718//718 720//720
f 713//713 720//720 719//719
f 713//713 719//719 711//711
f 711//711 719//719 721//721
f 714//714 711//711 722//722
f 722//722 711//711 721//721
f 715//715 714//714 723//723
f 723//723 714//714 722//722
f 602//602 723//723 603//603
f 602//602 716//716 723//723
f 716//716 715//715 723//723
f 598//598 716//716 602//602
f 600//600 605//605 718//718
f 607//607 718//718 605//605
f 607//607 724//724 718//718
f 724//724 719//719 718//718
f 721//721 719//719 725//725
f 725//725 719//719 724//724
f 609//609 725//725 610//610
f 609//609 722//722 725//725
f 722//722 721//721 725//725
f 612//612 722//722 609//609
f 723//723 722//722 612//612
f 603//603 723//723 612//612
f 607//607 616//616 724//724
f 618//618 724//724 616//616
f 725//725 724//724 618//618
f 610//610 725//725 618//618
f 636//636 635//635 726//726
f 636//636 726//726 637//637
f 726//726 640//640 727//727
f 635//635 640//640 726//726
f 637//637 728//728 641//641
f 637//637 726//726 728//728
f 726//726 727//727 728//728
f 641//641 728//728 642//642
f 727//727 644//644 729//729
f 640//640 644//644 727//727
f 728//728 727//727 730//730
f 730//730 727//727 729//729
f 642//642 730//730 646//646
f 728//728 730//730 642//642
f 729//729 648//648 731//731
f 644//644 648//648 729//729
f 730//730 729//729 732//732
f 732//732 729//729 731//731
f 646//646 733//733 649//649
f 646//646 730//730 733//733
f 730//730 732//732 733//733
f 649//649 733//733 650//650
f 731//731 651//651 734//734
f 648//648 651//651 731//731
f 732//732 731//731 735//735
f 735//735 731//731 734//734
f 652//652 735//735 653//653
f 652//652 733//733 735//735
f 733//733 732//732 735//735
f 650//650 733//733 652//652
f 651//651 654//654 734//734
f 655//655 734//734 654//654
f 735//735 734//734 655//655
f 653//653 735//735 655//655
f 657//657 736//736 737//737
f 656//656 736//736 657//657
f 738//738 737//737 739//739
f 738//738 658//658 737//737
f 658//658 657//657 737//737
f 658//658 738//738 659//659
f 661//661 740//740 741//741
f 660//660 740//740 661//661
f 662//662 661//661 742//742
f 661//661 741//741 742//742
f 736//736 656//656 662//662
f 742//742 736//736 662//662
f 738//738 739//739 743//743
f 744//744 743//743 745//745
f 663//663 743//743 744//744
f 663//663 738//738 743//743
f 663//663 659//659 738//738
f 663//663 744//744 664//664
f 660//660 665//665 740//740
f 740//740 665//665 746//746
f 747//747 744//744 745//745
f 748//748 747//747 745//745
f 664//664 747//747 667//667
f 744//744 747//747 664//664
f 665//665 668//668 746//746
f 746//746 668//668 749//749
f 750//750 747//747 748//748
f 751//751 750//750 748//748
f 667//667 750//750 669//669
f 747//747 750//750 667//667
f 752//752 670//670 753//753
f 752//752 749//749 670//670
f 749//749 668//668 670//670
f 752//752 753//753 754//754
f 755//755 756//756 757//757
f 751//751 756//756 755//755
f 750//750 751//751 755//755
f 750//750 755//755 673//673
f 750//750 673//673 672//672
f 669//669 750//750 672//672
f 670//670 674//674 753//753
f 676//676 758//758 759//759
f 674//674 676//676 759//759
f 674//674 759//759 754//754
f 674//674 754//754 753//753
f 758//758 760//760 761//761
f 759//759 758//758 761//761
f 757//757 761//761 760//760
f 757//757 760//760 755//755
f 755//755 760//760 762//762
f 673//673 762//762 678//678
f 755//755 762//762 673//673
f 680//680 679//679 763//763
f 680//680 758//758 676//676
f 680//680 763//763 758//758
f 763//763 764//764 758//758
f 760//760 758//758 765//765
f 765//765 758//758 764//764
f 762//762 760//760 766//766
f 766//766 760//760 765//765
f 678//678 766//766 682//682
f 762//762 766//766 678//678
f 763//763 684//684 767//767
f 679//679 684//684 763//763
f 764//764 763//763 768//768
f 768//768 763//763 767//767
f 765//765 764//764 769//769
f 769//769 764//764 768//768
f 686//686 769//769 687//687
f 686//686 766//766 769//769
f 766//766 765//765 769//769
f 682//682 766//766 686//686
f 767//767 690//690 770//770
f 684//684 690//690 767//767
f 768//768 767//767 771//771
f 771//771 767//767 770//770
f 769//769 768//768 772//772
f 772//772 768//768 771//771
f 687//687 772//772 692//692
f 769//769 772//772 687//687
f 696//696 695//695 773//773
f 696//696 770//770 690//690
f 696//696 773//773 770//770
f 773//773 774//774 770//770
f 698//698 774//774 699//699
f 698//698 771//771 774//774
f 771//771 770//770 774//774
f 701//701 771//771 698//698
f 772//772 771//771 701//701
f 692//692 772//772 701//701
f 705//705 704//704 775//775
f 705//705 773//773 695//695
f 705//705 775//775 773//773
f 775//775 776//776 773//773
f 774//774 773//773 777//777
f 777//777 773//773 776//776
f 699//699 777//777 707//707
f 774//774 777//777 699//699
f 775//775 710//710 778//778
f 704//704 710//710 775//775
f 776//776 775//775 779//779
f 779//779 775//775 778//778
f 712//712 779//779 713//713
f 712//712 777//777 779//779
f 777//777 776//776 779//779
f 707//707 777//777 712//712
f 710//710 717//717 778//778
f 720//720 778//778 717//717
f 779//779 778//778 720//720
f 713//713 779//779 720//720
f 737//737 736//736 780//780
f 737//737 780//780 739//739
f 741//741 740//740 781//781
f 782//782 741//741 781//781
f 782//782 783//783 741//741
f 783//783 742//742 741//741
f 780//780 736//736 742//742
f 780//780 742//742 784//784
f 784//784 742//742 783//783
f 785//785 784//784 786//786
f 743//743 784//784 785//785
f 743//743 780//780 784//784
f 743//743 739//739 780//780
f 743//743 785//785 745//745
f 781//781 746//746 787//787
f 740//740 746//746 781//781
f 788//788 782//782 781//781
f 787//787 788//788 781//781
f 789//789 785//785 786//786
f 790//790 789//789 786//786
f 745//745 789//789 748//748
f 785//785 789//789 745//745
f 787//787 749//749 791//791
f 746//746 749//749 787//787
f 792//792 788//788 787//787
f 792//792 787//787 793//793
f 793//793 787//787 791//791
f 793//793 794//794 795//795
f 792//792 793//793 795//795
f 790//790 795//795 794//794
f 790//790 794//794 789//789
f 789//789 794//794 796//796
f 748//748 796//796 751//751
f 789//789 796//796 748//748
f 749//749 752//752 791//791
f 754//754 791//791 752//752
f 754//754 797//797 791//791
f 797//797 793//793 791//791
f 794//794 793//793 798//798
f 798//798 793//793 797//797
f 756//756 798//798 757//757
f 756//756 796//796 798//798
f 796//796 794//794 798//798
f 751//751 796//796 756//756
f 754//754 759//759 797//797
f 761//761 797//797 759//759
f 798//798 797//797 761//761
f 757//757 798//798 761//761
f 783//783 782//782 799//799
f 783//783 800//800 784//784
f 799//799 800//800 783//783
f 784//784 800//800 786//786
f 799//799 788//788 801//801
f 782//782 788//788 799//799
f 800//800 799//799 802//802
f 802//802 799//799 801//801
f 786//786 802//802 790//790
f 800//800 802//802 786//786
f 788//788 792//792 801//801
f 795//795 801//801 792//792
f 802//802 801//801 795//795
f 790//790 802//802 795//795
